<svg width="587" height="244" viewBox="0 0 587 244" xmlns="http://www.w3.org/2000/svg">
<title>珈琲・俺（かふぇおれ）</title>
<path d="M399.101 84.4016C391.889 77.2908 376.699 80.7135 365.207 92.0166C353.715 103.32 350.254 118.231 357.44 125.342C364.652 132.453 379.842 129.03 391.334 117.701C402.826 106.398 406.314 91.4859 399.075 84.4016H399.101ZM379.79 106.344C369.513 116.427 360.504 123.989 359.659 123.166C358.84 122.344 366.475 113.455 376.778 103.373C387.055 93.2636 396.09 85.7283 396.909 86.5508C397.754 87.3733 390.093 96.2619 379.79 106.344Z" fill="#F9F8F6"/>
<path d="M6.0498 10.9316H39.2048C42.5335 11.5153 44.1979 12.6563 44.1979 14.3544C44.1979 16.7689 42.8241 17.9894 40.0766 17.9894H4.54396C1.50585 17.9894 0 16.7689 0 14.3544C0 12.6563 2.03421 11.5153 6.07622 10.9316M18.5985 46.937H6.02338C3.27587 46.937 1.90212 45.7695 1.90212 43.5142C1.90212 41.6569 3.85707 40.4629 7.76699 39.8792H19.0212C19.1533 36.0584 19.3646 32.4234 19.6817 29.0272C20.1044 26.7453 20.7648 25.6309 21.6102 25.6309C22.0593 25.6309 22.5613 26.7719 23.1425 29.0272C23.4331 32.4499 23.7237 36.0584 24.0143 39.8792H36.7743C40.3936 40.4629 42.1901 41.6569 42.1901 43.5142C42.1901 45.7695 40.7371 46.937 37.8575 46.937H24.437C25.3088 60.973 25.7315 78.0337 25.7315 98.0396C25.7315 135 25.1503 156.545 24.0143 162.807C27.8978 160.923 31.7284 158.986 35.4798 156.81C37.6461 156.81 38.7293 157.314 38.7293 158.296C38.7293 158.88 38.3594 159.809 37.6461 161.082C30.0112 168.485 18.3607 173.314 2.77392 175.569C1.32092 175.569 0.607621 174.985 0.607621 173.845C0.607621 173.287 1.45301 172.438 3.22304 171.297C8.98224 169.44 14.7679 167.185 20.5271 164.505C20.5271 163.921 20.4742 163.656 20.3157 163.656C18.5985 154.98 17.7267 133.116 17.7267 98.0131C17.8852 76.8662 18.1758 59.832 18.5985 46.9104M68.2386 27.329C68.0801 27.9127 67.9216 28.47 67.7895 29.0272C64.3287 42.5059 62.0303 60.1239 60.8679 81.8545C59.1243 114.092 56.456 137.653 52.8367 152.565C47.9229 174.136 42.4543 189.499 36.3781 198.547C35.929 199.688 34.793 200.271 32.9173 200.271C32.1775 200.271 31.8341 199.688 31.8341 198.547C38.1745 184.776 43.2468 165.38 46.9982 140.386C49.0325 125.209 50.6968 105.681 51.9913 81.8279C54.7388 58.9564 57.6184 41.8426 60.6565 30.4864C60.9471 29.4782 61.2377 28.4169 61.5283 27.276H51.3308C46.7076 27.276 44.3828 26.0555 44.3828 23.641C44.3828 21.3591 46.7076 20.2182 51.3308 20.2182H63.4569C66.495 11.8337 70.1671 5.59847 74.4997 1.48584C76.2433 0.477588 77.6699 0 78.8323 0C79.8627 0 80.3382 0.291828 80.3382 0.875555C76.4547 4.85551 72.9675 11.3031 69.9558 20.2447H79.9155C85.9917 20.2447 89.0034 23.1634 89.0034 28.9741V126.085C89.0034 167.583 80.8665 192.285 64.54 200.218C62.8228 200.218 61.951 199.927 61.951 199.369C61.951 198.255 62.6115 197.3 63.906 196.61C75.3187 183.529 81.0251 159.755 81.0251 125.262L81.4478 31.309C81.4478 28.6557 79.4928 27.3025 75.6093 27.3025H68.2386V27.329ZM107.866 16.2382C111.036 15.681 114.233 15.3891 117.403 15.3891C120.864 15.3891 124.272 15.681 127.601 16.2382C127.891 12.6828 129.397 10.9051 132.145 10.9051C134.311 10.9051 135.394 12.6828 135.394 16.2382V148.32C135.394 178.992 129.608 194.328 118.064 194.328C106.519 194.328 100.073 179.178 100.073 148.957V15.3891C100.073 11.9664 101.367 10.2683 103.956 10.2683C106.281 10.2683 107.575 11.6215 107.866 14.3278V16.2382ZM118.486 187.297C124.563 187.297 127.601 173.447 127.601 145.746V22.845C124.272 22.2878 120.811 21.9959 117.218 21.9959H107.893V148.32C107.893 174.296 111.433 187.297 118.513 187.297" fill="#F9F8F6"/>
<path d="M202.259 16.4772H187.518C184.638 16.4772 183.212 15.2567 183.212 12.8422C183.212 11.1441 185.14 10.0031 189.05 9.44594H221.333C224.662 10.0031 226.3 11.1441 226.3 12.8422C226.3 15.2567 224.953 16.4772 222.179 16.4772H205.297C205.456 17.0344 205.588 17.5916 205.72 18.1753C206.301 23.8534 206.803 30.6193 207.226 38.4201H219.141C222.76 38.9773 224.556 40.1977 224.556 42.0285C224.556 44.3104 223.103 45.4513 220.224 45.4513H207.649C208.23 58.3994 208.52 73.7355 208.52 91.4596C208.52 132.957 207.807 156.519 206.354 162.17C211.558 161.029 217.053 159.543 222.813 157.713C224.398 157.713 225.19 158.641 225.19 160.472C225.19 161.613 224.239 162.754 222.39 163.895C216.446 167.291 204.769 169.838 187.28 171.563C183.106 171.563 180.992 170.05 180.992 167.079C181.283 164.956 184.163 163.895 189.684 163.895C193.858 163.895 198.27 163.603 202.893 163.019C202.735 162.462 202.655 161.905 202.655 161.321C200.78 152.114 199.855 128.792 199.855 91.4596C199.987 73.2845 200.225 57.9484 200.516 45.4513H189.024C186.276 45.4513 184.902 44.3104 184.902 42.0285C184.902 40.1977 186.857 38.9773 190.741 38.4201H200.727C201.176 30.6193 201.519 23.8534 201.81 18.1753C201.969 17.6181 202.101 17.0609 202.233 16.4772M254.7 11.1441C255.281 3.76791 256.522 0.0797816 258.372 0.0797816C260.697 0.0797816 261.991 3.76791 262.282 11.1441V85.2774C262.282 114.252 259.191 136.751 252.982 152.804C246.906 170.953 238.743 185.758 228.493 197.088C227.621 198.229 226.908 198.786 226.326 198.786C225.455 198.786 225.032 197.937 225.032 196.239C234.859 181.884 242.151 165.407 246.933 146.834C252.137 126.377 254.726 106.796 254.726 88.0368C248.94 89.7349 239.509 90.8758 226.353 91.433C222.179 91.433 220.065 90.2921 220.065 88.0368C220.356 85.6223 223.394 84.4018 229.153 84.4018C236.656 83.8446 245.189 82.7833 254.726 81.1913V47.7331H233.908C231.187 47.7331 229.814 46.9637 229.814 45.3983C229.814 43.1164 231.689 41.9755 235.441 41.9755H254.726V18.1222H234.357C231.61 18.1222 230.236 17.0078 230.236 14.726C230.236 12.8952 232.112 11.6747 235.863 11.1175H254.7V11.1441ZM291.104 79.4932H318.183C321.644 79.4932 323.361 80.5545 323.361 82.7037C323.361 84.9856 321.934 86.0999 319.028 86.0999H291.078V101.463C291.078 156.545 290.417 187.801 289.123 195.177C288.541 198.149 287.828 199.635 286.956 199.635C286.375 199.635 285.82 198.149 285.213 195.177C283.364 182.68 282.412 151.451 282.412 101.463C282.703 56.1706 283.363 23.4819 284.367 3.47601C284.949 1.16763 285.662 0.0532227 286.56 0.0532227C287.141 0.0532227 287.696 1.16763 288.277 3.47601C288.409 5.89051 288.568 8.43773 288.7 11.1441H314.273C317.443 11.1441 319.028 12.3646 319.028 14.7526C319.028 16.4772 317.734 17.3263 315.118 17.3263H289.123C289.572 24.5698 289.915 32.795 290.206 42.002H313.824C316.968 42.002 318.579 43.1429 318.579 45.4247C318.579 46.9902 317.285 47.7597 314.669 47.7597H290.391C290.681 57.5504 290.893 68.1636 291.051 79.4932" fill="#F9F8F6"/>
<path d="M471.62 0.0529672C472.491 0.0529672 472.914 0.928616 472.914 2.6002C471.065 7.13735 467.736 11.9929 462.954 17.0872C459.071 22.0489 454.95 26.3207 450.617 29.8762C458.278 32.556 462.109 37.9688 462.109 46.0613V187.297C462.109 191.436 461.739 195.442 461.026 199.449C460.735 201.704 459.863 202.845 458.437 202.845C457.274 202.845 456.35 201.359 455.61 198.361C455.029 194.54 454.738 191.117 454.738 188.146V45.2123C454.157 38.2606 449.19 34.2275 439.786 33.0601C437.038 33.0601 435.691 32.7683 435.691 32.2111C435.691 31.6539 436.774 30.8579 438.914 29.8496C441.661 28.1515 446.364 24.4369 452.995 18.7588C458.331 14.6727 463.747 9.25997 469.242 2.57364C470.537 0.875524 471.329 0.0264893 471.62 0.0264893M580.912 198.388C607.701 213.591 535.843 223.753 545.459 243.069C545.459 243.069 533.148 225.664 557.03 212.026C557.03 212.026 571.851 206.772 555.445 188.995C547.467 180.345 539.039 171.244 532.699 159.172C527.072 151.344 523.294 137.786 521.418 118.497C504.537 117.223 493.97 106.344 489.769 85.8874C488.184 78.6439 487.391 65.9611 487.391 47.7594C481.315 55.0029 475.054 60.1238 468.555 63.0955C467.683 64.2364 467.181 64.8201 467.049 64.8201C464.434 64.8201 463.139 63.8915 463.139 62.0342C471.672 55.2152 479.307 46.7777 486.097 36.6686C490.271 30.9905 494.683 25.339 499.306 19.6344H485.225C482.187 19.6344 480.655 18.4404 480.655 15.9994C480.655 13.7175 482.742 12.6031 486.942 12.6031H505.594C509.636 8.62317 514.021 5.49225 518.803 3.21041C522.132 3.21041 523.769 3.50229 523.769 4.05948C523.769 5.17387 522.475 6.04944 519.886 6.60663C518.142 8.46395 516.425 10.4274 514.682 12.5766H564.718C568.337 12.5766 570.134 13.691 570.134 15.9728C570.134 18.3873 568.628 19.6079 565.59 19.6079L547.625 18.7588C549.633 27.727 553.464 35.6073 559.117 42.4262C559.698 42.9834 560.121 43.6202 560.412 44.3366C564.876 49.2983 570.583 53.862 577.531 57.9747C578.535 58.3992 579.037 58.8768 579.037 59.4605C578.905 60.0177 576.448 60.3096 576.448 60.3096C570.979 58.1869 565.828 55.6132 561.072 52.6149C560.914 67.5265 560.042 79.4664 558.457 88.4345C555.419 105.469 545.67 115.206 529.212 117.621C530.638 131.259 533.465 142.244 537.639 150.602C537.639 150.602 546.199 178.647 580.86 198.334M520.362 45.2123C520.52 40.6751 520.652 37.5442 520.811 35.8195C521.233 32.8478 522.105 31.3355 523.4 31.3355C524.404 31.3355 525.064 32.211 525.355 33.9092C525.645 37.4646 525.936 41.2323 526.226 45.2123C535.473 45.2123 544.561 45.7694 553.517 46.9103V46.0613C552.354 44.947 551.192 43.7264 550.056 42.4528C544.719 36.191 541.391 28.3107 540.096 18.7853L508.473 19.6344C507.179 20.7753 505.937 22.1285 504.801 23.6674C501.763 27.8066 497.51 33.4846 492.015 40.7016C493.468 41.2853 494.313 43.0631 494.604 46.0348C503.137 45.4776 511.723 45.1857 520.388 45.1857M495.053 63.0955H520.177V51.819C511.802 51.819 503.348 52.1109 494.815 52.668C494.815 56.648 494.921 60.1503 495.053 63.0955ZM520.599 109.979C520.309 105.999 520.097 101.409 519.939 96.1292C519.939 86.0466 519.939 77.2376 519.939 69.7288H495.475C496.057 79.5195 496.849 86.0731 497.853 89.3102C502.027 103.081 509.636 109.979 520.599 109.979ZM553.305 53.7028C544.64 52.4292 535.763 51.7924 526.649 51.7924C526.94 55.3478 527.177 59.1155 527.31 63.069H552.856C553.015 60.0973 553.147 56.9664 553.305 53.6763M552.433 69.7288H527.521C527.812 77.8214 528.023 86.6038 528.181 96.1292C528.181 100.799 528.313 105.442 528.63 109.979C540.175 108.122 547.097 101.595 549.422 90.3715C550.716 87.957 551.747 81.0584 552.46 69.7288" fill="#F9F8F6"/>
<path d="M485.886 213.272C485.596 213.272 485.384 213.272 485.173 213.272C482.373 213.326 479.546 213.379 476.745 213.432C476.455 213.432 476.111 213.432 475.847 213.326C475.609 213.219 475.345 212.901 475.345 212.689C475.345 212.45 475.583 212.132 475.821 211.999C476.059 211.866 476.402 211.866 476.719 211.84C479.836 211.76 482.954 211.68 486.071 211.601C486.203 211.601 486.335 211.601 486.547 211.548C486.547 210.831 486.547 210.168 486.547 209.478C486.547 209.186 486.547 208.841 486.679 208.576C486.811 208.337 487.101 208.072 487.339 208.072C487.524 208.072 487.894 208.337 487.947 208.55C488.105 209.107 488.158 209.717 488.211 210.301C488.237 210.699 488.211 211.097 488.211 211.574C488.528 211.574 488.792 211.574 489.03 211.574C490.324 211.548 491.619 211.495 492.94 211.495C493.653 211.495 493.97 211.734 493.997 212.264C493.997 212.768 493.68 213.06 492.966 213.087C491.593 213.14 490.219 213.166 488.845 213.193C488.687 213.193 488.554 213.193 488.343 213.219C488.343 213.405 488.343 213.564 488.343 213.723C488.343 222.506 488.369 231.315 488.369 240.097C488.369 240.84 488.158 241.583 488 242.3C487.947 242.485 487.735 242.618 487.577 242.777C487.418 242.618 487.154 242.485 487.128 242.3C486.943 241.291 486.705 240.257 486.705 239.248C486.626 235.109 486.599 230.997 486.573 226.857C486.573 223.143 486.573 219.455 486.547 215.74C486.547 215.554 486.547 215.369 486.547 214.971C486.309 215.262 486.15 215.395 486.018 215.581C484.195 218.022 482.927 220.755 481.976 223.62C481.157 226.114 480.629 228.688 479.995 231.235C479.334 233.809 478.7 236.356 477.353 238.691C476.191 240.734 474.606 242.326 472.307 243.069C472.096 243.122 471.884 243.149 471.673 243.175C471.62 243.122 471.594 243.069 471.541 243.016C471.726 242.777 471.884 242.485 472.122 242.273C473.549 241 474.79 239.567 475.794 237.948C476.957 236.038 477.406 233.915 477.934 231.793C478.674 228.741 479.202 225.637 480.365 222.692C481.474 219.826 482.742 217.04 484.697 214.626C485.041 214.201 485.437 213.803 485.913 213.299L485.886 213.272Z" fill="#F9F8F6"/>
<path d="M381.982 214.016C380.794 214.175 379.684 214.334 378.574 214.52C378.205 214.573 377.808 214.679 377.439 214.679C376.989 214.679 376.567 214.6 376.461 214.095C376.355 213.618 376.646 213.114 377.174 213.008C378.046 212.822 378.944 212.663 379.816 212.53C380.688 212.397 381.56 212.318 382.432 212.185C382.643 212.158 382.881 211.973 383.013 211.787C383.885 210.726 384.73 209.638 385.602 208.577C385.655 208.524 385.707 208.444 385.76 208.417C385.998 208.391 386.209 208.391 386.447 208.364C386.421 208.603 386.447 208.842 386.342 209.028C385.892 209.797 385.39 210.566 384.941 211.336C384.836 211.495 384.809 211.681 384.704 211.92C385.285 211.92 385.787 211.92 386.289 211.92C386.949 211.92 387.583 211.946 388.244 212.052C389.617 212.265 390.674 212.981 391.07 214.334C391.467 215.74 391.784 217.2 391.995 218.659C392.788 224.523 393.025 230.387 392.788 236.304C392.735 237.577 392.55 238.877 392.206 240.098C391.731 241.902 390.542 242.725 388.666 242.804C387.821 242.831 386.949 242.804 386.077 242.804C385.919 242.804 385.734 242.751 385.575 242.671C385.47 242.618 385.338 242.459 385.338 242.353C385.338 242.247 385.47 242.035 385.575 242.008C385.972 241.902 386.368 241.876 386.764 241.822C387.478 241.716 388.217 241.69 388.904 241.531C389.565 241.398 390.066 240.947 390.172 240.284C390.41 238.665 390.727 237.073 390.806 235.454C390.991 230.572 390.859 225.69 390.357 220.835C390.172 219.057 389.934 217.306 389.565 215.555C389.274 214.148 388.772 213.804 387.319 213.75C386.394 213.75 385.443 213.777 384.519 213.777C384.096 213.777 383.885 213.936 383.753 214.361C382.669 217.704 381.93 221.127 381.296 224.576C380.556 228.556 379.843 232.536 378.997 236.489C378.522 238.692 377.676 240.788 376.25 242.565C375.985 242.884 375.668 243.361 375.246 243.096C374.823 242.804 375.219 242.38 375.378 242.035C376.593 239.62 377.254 237.047 377.756 234.446C378.442 230.785 378.997 227.123 379.605 223.435C380.107 220.437 380.741 217.492 381.745 214.626C381.798 214.467 381.85 214.308 381.93 214.016H381.982Z" fill="#F9F8F6"/>
<path d="M412.549 212.291C410.647 212.371 408.507 212.477 406.34 212.556C406.05 212.556 405.733 212.556 405.416 212.503C405.02 212.424 404.703 212.211 404.676 211.734C404.65 211.283 404.887 210.991 405.31 210.911C405.838 210.805 406.367 210.726 406.895 210.726C411.149 210.62 415.428 210.54 419.682 210.487C420.369 210.487 421.055 210.646 421.716 210.832C422.588 211.071 422.826 211.522 422.746 212.424C422.509 215.263 421.584 217.916 420.738 220.596C418.968 226.062 416.512 231.183 412.919 235.72C410.699 238.506 408.163 240.92 405.231 242.937C405.02 243.096 404.782 243.229 404.518 243.308C404.412 243.361 404.174 243.308 404.121 243.202C404.042 243.123 404.068 242.91 404.121 242.778C404.227 242.592 404.386 242.406 404.544 242.247C412.153 235.614 416.908 227.256 419.523 217.571C419.893 216.165 420.21 214.732 420.527 213.326C420.738 212.424 420.606 212.291 419.655 212.291C417.357 212.291 415.059 212.291 412.496 212.291H412.549Z" fill="#F9F8F6"/>
<path d="M508.315 240.23C508.87 239.753 509.451 239.275 509.98 238.771C513.467 235.481 515.713 231.395 517.403 226.937C517.535 226.592 517.615 226.221 517.8 225.929C517.958 225.69 518.249 225.319 518.434 225.345C518.883 225.398 518.803 225.876 518.724 226.194C518.434 227.388 518.169 228.582 517.72 229.723C516.188 233.756 514.075 237.418 510.825 240.31C510.165 240.894 509.451 241.424 508.765 241.955C508.474 242.167 508.13 242.3 507.787 242.406C507.047 242.618 506.44 242.247 506.281 241.504C506.202 241.159 506.176 240.787 506.176 240.416C506.255 232.96 506.281 225.478 506.413 218.022C506.466 215.05 506.677 212.079 506.836 209.107C506.836 208.815 506.968 208.523 507.127 208.258C507.206 208.125 507.444 207.993 507.576 208.019C507.734 208.019 507.919 208.231 507.972 208.364C508.078 208.682 508.104 209.001 508.104 209.319C508.104 215.289 508.13 221.259 508.104 227.229C508.104 231.236 508.025 235.215 507.972 239.222C507.972 239.54 508.025 239.859 508.078 240.151C508.157 240.177 508.236 240.204 508.289 240.23H508.315Z" fill="#F9F8F6"/>
<path d="M435.744 223.7C435.004 223.7 434.318 223.7 433.657 223.7C432.997 223.7 432.706 223.435 432.706 222.878C432.706 222.32 432.97 222.082 433.657 222.055C435.586 222.028 437.514 222.002 439.443 222.002C439.733 222.002 440.129 222.108 440.314 222.32C440.473 222.506 440.473 222.931 440.394 223.169C440.314 223.355 439.997 223.541 439.76 223.567C439.046 223.647 438.307 223.62 437.593 223.647C437.408 223.647 437.223 223.647 437.012 223.673V241.053C437.831 241.053 438.729 241.053 439.654 241.053C440.367 241.053 440.764 241.61 440.42 242.167C440.262 242.432 439.812 242.618 439.469 242.645C438.175 242.698 436.88 242.671 435.559 242.671C434.635 242.671 433.71 242.671 432.812 242.671C432.178 242.671 431.861 242.379 431.861 241.849C431.861 241.344 432.178 241.079 432.812 241.079C433.736 241.079 434.687 241.079 435.559 241.079C435.295 233.464 435.216 231.235 435.77 223.673L435.744 223.7Z" fill="#F9F8F6"/>
<path d="M463.801 222.081C462.136 220.436 458.623 221.232 455.981 223.832C453.339 226.433 452.52 229.882 454.184 231.527C455.849 233.172 459.362 232.376 462.004 229.776C464.646 227.176 465.465 223.726 463.801 222.081ZM459.336 227.149C456.958 229.484 454.871 231.235 454.686 231.023C454.501 230.837 456.271 228.794 458.649 226.459C461.027 224.124 463.114 222.4 463.299 222.585C463.484 222.771 461.714 224.814 459.362 227.149H459.336Z" fill="#F9F8F6"/>
</svg>
