<svg width="101" height="102" viewBox="0 0 101 102" xmlns="http://www.w3.org/2000/svg">
<title>珈琲・俺（かふぇおれ）ロゴ</title>
<path d="M58.8354 65.7064L56.996 101.006C57.134 100.988 57.2721 100.975 57.4102 100.952L59.2452 65.7287L58.8354 65.7064Z" />
<path d="M60.9956 65.7332L59.5526 95.2151C59.5526 96.7343 59.4323 97.9765 59.2141 99.0087L60.9511 65.7377L60.1316 65.693L58.301 100.827C60.2429 100.519 62.1447 100.094 64.0064 99.5762V65.7287H61.0001L60.9956 65.7332Z" />
<path d="M59.5124 65.7064L57.6819 100.921C57.82 100.903 57.958 100.89 58.0916 100.867L59.9222 65.7287L59.5124 65.7064Z" />
<path d="M62.069 49.1424C62.0779 49.7725 63.4586 49.7725 63.4719 49.1424C63.4719 49.1871 63.1557 48.8967 62.7727 48.8967C62.3896 48.8967 62.0734 48.8788 62.0734 49.1424H62.069Z" />
<path d="M64.1489 63.8253C62.6256 63.8253 60.9421 63.8431 60.9421 63.8431V64.2051H60.8352L60.8486 63.8655C60.6303 63.8565 60.4878 63.8655 60.0691 63.8342V64.2095H59.8554L59.8776 63.8342C59.8776 63.8342 59.6906 63.8252 59.5391 63.8163L59.5213 64.2095H59.2318L59.2541 63.8208C59.2541 63.8208 59.0804 63.8118 58.9379 63.8074L58.92 64.2051L59.0537 64.214H59.0269C59.0269 64.214 62.3851 64.5223 65.9749 64.29L64.1444 64.2497V63.8208L64.1489 63.8253Z" />
<path d="M64.0866 62.1138C62.5634 62.1138 60.8798 62.1317 60.8798 62.1317V62.726H60.8219L60.8353 62.1451C60.6215 62.1362 60.4745 62.1451 60.0559 62.1004L60.0425 62.7171H59.8465L59.8688 62.1049C59.8688 62.1049 59.6817 62.0915 59.5259 62.0826L59.4991 62.7126H59.223L59.2453 62.0915C59.2453 62.0915 59.0716 62.0781 58.929 62.0647L58.9068 62.7037L57.7399 62.6903C57.7399 62.6903 60.6883 63.2577 67.0707 62.9226L64.0866 62.7796V62.1183V62.1138Z" />
<path d="M101 50.7287C101 22.7124 78.33 0 50.3598 0C-15.6639 2.43523 -17.2584 96.6003 48.4759 101.408C46.8725 98.9461 47.879 94.6655 47.879 94.6655L48.0572 92.0113C48.0572 92.0113 44.65 91.2338 43.6969 86.2562C42.8596 82.5117 41.2517 75.8852 40.9845 74.3526C40.9845 74.3526 39.2742 66.3141 37.1186 64.1515C35.3727 62.3999 34.1746 61.6671 31.5245 61.323C31.5245 61.323 31.6938 60.5947 32.2505 60.5947C32.2505 60.5947 31.5513 60.7332 32.4643 60.9387C33.4041 61.1488 36.7667 62.2658 38.3478 65.4383C39.9289 68.6108 42.3875 78.5215 43.158 80.7512C43.9285 82.9809 44.895 87.1275 47.4604 87.8558L48.7386 88.3294L48.752 87.4358C46.5162 86.3008 44.5342 83.5394 43.4742 79.929C41.9064 74.7994 39.7597 67.9406 39.1183 66.4035C38.3389 64.5402 35.729 60.8449 32.4955 60.4338C32.4955 60.4338 32.7315 59.6519 35.0074 61.1353C36.5307 62.1273 37.8401 63.2801 38.8556 64.92C41.5902 70.1345 41.5101 67.6054 42.2316 69.1291C44.0977 73.0836 45.9327 78.8254 47.6964 80.9925C48.6184 83.4769 48.4491 81.3008 49.1128 81.3008C50.4133 81.3008 50.734 70.5367 50.734 67.9316C50.734 65.3266 51.4867 64.3347 51.4867 64.3347L51.4555 60.8717C64.0643 62.2658 76.2277 61.2247 76.2277 61.2247C76.4994 62.7484 75.9382 64.1157 75.9382 64.1157C77.8668 69.7815 77.3902 91.0328 78.6195 91.0328C79.2608 91.0328 83.0733 89.1293 86.4493 86.2964C88.0616 84.6565 89.567 82.9139 90.9432 81.0684C91.6469 79.7235 92.0122 78.3249 91.8474 76.9129C90.9922 69.7458 86.5518 69.0621 86.5518 69.0621C85.082 68.6912 83.8794 68.66 82.7615 69.0621C81.7327 69.433 80.4901 69.9379 79.1049 70.0898C77.7198 70.2462 77.172 69.7145 77.2878 69.7815C77.7465 70.2418 79.822 69.8173 80.9488 69.4374C82.4542 69.4374 81.5367 68.517 83.0332 68.2042C86.3647 67.8914 86.2133 69.0264 87.9859 69.0264C89.7585 69.0264 88.5693 67.7395 88.5693 67.7395C90.1816 68.9236 92.3106 70.3624 92.9118 74.5805C93.1835 75.7199 93.1657 76.9308 92.943 78.1685C98.0337 70.2551 101 60.8449 101 50.7331V50.7287ZM82.374 69.357C82.374 69.357 88.6361 67.3642 90.7339 73.5438C91.4643 75.6841 91.6202 76.8682 91.6202 76.8861C88.2353 82.257 83.8394 86.9219 78.6996 90.6083C78.4146 86.1489 77.6218 74.9558 77.2922 70.3758C77.2922 70.3758 80.1738 70.5233 82.374 69.3615V69.357ZM31.333 61.1264C31.235 61.3588 31.4444 61.4883 31.5646 61.5062C34.7313 61.895 36.8513 63.3427 38.4325 66.8995C40.0626 71.4482 41.9198 79.9603 43.3718 86.1936C44.8237 92.4313 46.9215 92.0605 47.8122 92.5475C47.1486 95.8764 47.1174 98.0972 47.3891 99.6164C21.8107 98.0793 1.54129 76.7878 1.54129 50.7421C1.18943 14.9375 39.8666 -9.18683 71.6403 6.66671C71.52 9.86602 70.6827 12.9179 65.5207 15.648C61.5256 17.757 58.3055 16.8187 55.749 19.3835C51.4198 22.8107 57.3613 36.0369 55.2101 39.6785C53.0544 43.3157 44.1111 43.0923 44.2982 38.8072C44.3917 36.6937 44.846 36.6893 45.955 36.0056C48.409 35.0315 53.7982 30.3487 51.4466 24.3746C48.5961 18.2486 28.919 19.2539 32.785 34.12C33.7737 42.4712 33.2482 46.667 28.7364 47.6634C32.6914 40.2147 31.5379 29.3165 21.6593 28.8787C8.17305 28.8921 5.83924 44.5803 13.0188 50.2014C3.1803 53.7314 2.1381 61.8547 8.69415 64.8842C14.738 66.1845 20.9823 64.3391 22.1715 63.2488C26.5719 61.3677 29.5559 60.7868 31.5869 60.8226C31.4533 60.9611 31.3598 61.0683 31.3419 61.1175L31.333 61.1264ZM43.0288 33.6553C39.2564 34.4908 38.6284 33.4542 37.8223 31.3228C37.8223 31.3228 34.954 26.5105 41.1805 25.5274C47.2421 25.1968 48.85 32.3684 43.0288 33.6553ZM23.1513 45.3533C20.5904 47.0646 15.7713 44.4954 15.945 40.5007C16.1632 35.523 17.78 33.0163 21.4321 32.6186C21.4321 32.6186 25.0977 32.6007 26.073 36.4167C26.7634 39.1334 26.416 43.1683 23.1558 45.3488L23.1513 45.3533ZM50.6761 59.4955C49.8566 58.9816 50.0614 58.432 50.3331 57.9897C50.3331 57.9897 50.7251 57.5428 51.4778 57.2703C52.226 56.9977 52.5333 56.533 53.1836 55.9164C53.1836 55.9164 52.9431 56.7385 53.5087 56.8949C54.4306 57.7171 52.4309 57.0468 51.1704 57.6501C51.1704 57.6501 51.2684 57.8914 51.9187 57.9762C55.6599 58.7984 69.3733 58.9191 74.7268 58.1997C71.6225 58.5571 71.4399 57.6232 71.1058 57.6501C65.9126 58.0611 62.0868 57.7796 62.0868 57.7796C73.1546 56.4436 67.1152 51.9306 67.1152 51.9306C67.1152 51.9306 67.0706 51.9396 66.986 51.953C72.0545 56.4213 63.129 57.726 61.6815 57.8154C62.8662 57.6456 71.8808 56.2694 66.7366 51.9887C65.8547 52.1138 63.5031 52.3462 60.9199 51.7698C59.6194 51.0817 61.2584 51.2917 61.4633 51.2917C61.4633 51.2917 63.9307 51.7787 66.7945 51.2246C67.0706 50.9521 67.2043 50.331 66.5228 50.541C65.8414 50.7465 62.6257 51.0861 60.7818 50.608C60.6794 50.0942 60.5235 50.4114 60.5235 50.4114C60.5235 50.4114 59.2408 48.6017 60.9822 47.7662C60.9822 47.7662 63.3072 48.5437 66.5184 47.65C66.5184 47.65 66.9281 47.8287 66.9281 47.6768C66.9281 47.5249 68.1574 48.986 67.5428 50.1433C67.0974 50.9789 67.467 51.6491 67.467 51.6491C70.1082 52.0066 72.7359 54.2229 73.6801 55.7287C74.5665 57.1496 75.6443 57.7707 75.6443 57.7707L75.7467 57.7886C76.9225 58.2846 77.8979 59.4195 76.8379 60.1881C76.8379 60.1881 59.1384 61.4213 50.6627 59.5044L50.6761 59.4955ZM92.8005 72.5027C88.1373 62.8825 81.6659 67.5384 81.6659 67.5384C80.2852 68.9102 77.0606 68.794 77.0606 68.794C77.0651 67.4491 76.5039 64.7681 76.2233 64.1112C76.5841 63.7493 76.5083 61.2202 76.5083 61.2202C77.4704 61.2202 77.4704 60.2595 76.9893 60.2595C77.9558 59.2989 77.0829 58.3829 76.2767 57.9494C75.4706 57.516 74.6644 57.1496 73.5733 55.3221C70.6693 51.6625 67.7165 51.7206 67.5472 51.5464C67.378 51.3721 67.378 50.6304 67.5472 50.4114C68.2376 49.1424 67.3869 47.4534 66.5674 47.4489C66.26 47.4489 61.3831 47.4981 61.3831 47.4981C60.0826 47.4981 59.753 48.9726 60.1093 49.9378C60.4656 50.2997 60.4433 51.4525 59.7263 51.4525C57.3256 51.4436 53.9496 54.6652 53.2771 55.6483C52.6046 56.6268 51.5 57.1049 50.5736 57.6188C49.6517 58.2712 50.1238 59.2006 50.3465 59.424C50.5692 59.6474 50.5692 59.3748 50.2752 59.9066C49.9813 60.6126 51.1125 60.7555 51.1125 60.7555C51.1125 60.7555 51.2417 63.0299 51.2372 64.3347C50.0659 64.9513 50.5113 74.9379 48.8455 80.8495C45.9951 83.383 42.2538 58.1014 32.9631 59.6295C32.9542 59.6295 32.9498 59.6295 32.9409 59.6295C29.7742 59.491 27.0306 60.7823 23.9886 61.3632C21.1783 61.9039 17.5528 62.5429 15.5932 61.2515C15.5932 61.2515 12.1058 57.02 21.2094 54.129C32.7939 52.1674 35.0164 47.5025 36.8602 44.4239C39.8087 39.4909 37.1453 37.1986 39.3678 37.2969C41.5947 38.0476 41.1537 40.5007 41.0558 42.7125C39.3856 49.1692 45.8258 49.1067 52.8673 44.7099C57.1564 42.2612 61.2361 43.8787 66.8034 41.1039C77.8489 37.4623 76.348 26.9439 68.3222 34.2764C59.4234 40.389 60.0558 34.8483 60.0558 34.8483C59.5615 31.3452 62.795 30.8939 66.456 30.6481C70.1126 30.4023 70.362 25.6391 67.1686 25.9072C63.9708 26.1753 62.5634 29.1289 61.6281 29.9644C59.2185 32.1494 58.9379 24.2271 64.0242 21.993C70.2774 18.2888 74.1478 18.4228 76.7845 18.3156C80.9043 18.1458 82.668 16.4076 83.4029 14.7186C99.459 28.8563 104.064 55.2416 93.188 74.2275C93.1123 73.6421 92.9875 73.0657 92.8005 72.5072V72.5027Z" />
</svg>
