<svg width="897" height="228" viewBox="0 0 897 228" fill="none" xmlns="http://www.w3.org/2000/svg">
<title>一口に伝統と誇りをこめて。</title>
<g clip-path="url(#clip0_105_278)">
<path d="M80.7618 46.1068C82.4206 44.1176 84.4056 41.4471 86.0916 39.5396C86.9889 38.6949 87.1249 37.9864 88.2126 38.4769C90.9318 40.1664 94.9291 43.5454 97.4308 45.8888C98.7089 47.0606 100.803 49.0771 98.4642 49.8673C96.3431 49.8673 27.9811 49.8673 24.9084 49.8673C24.7996 49.8673 24.4733 49.8673 23.7391 49.8673C17.376 49.8673 9.78931 49.9763 3.83415 50.6576C2.1754 50.8211 0.163155 47.2786 0 46.1341C22.6242 47.2786 31.7065 47.0878 63.0867 47.0333C71.3532 47.0333 77.961 47.0333 78.9943 47.0333C79.5382 46.9788 79.7829 46.8971 80.4083 46.4339L80.7618 46.1068Z" fill="#F9F8F6"/>
<path d="M125.956 86.6275C122.339 85.6465 123.726 83.2757 123.699 79.5152C123.808 77.199 123.971 74.0925 124.134 70.1958C124.596 54.2818 125.494 28.4217 123.373 14.497C123.373 14.061 123.209 13.2707 123.672 13.1072C127.533 13.843 131.938 17.6852 135.664 18.8297C139.634 18.8842 175.827 18.8297 179.824 18.8569C181.945 18.7479 184.121 14.8785 185.888 13.5705C186.514 13.08 186.677 13.1617 187.656 13.625C190.457 15.369 193.529 17.5489 195.868 19.9197C198.179 21.9362 194.617 23.7347 193.121 25.0972C192.224 25.9964 192.414 26.6232 192.387 28.4217C192.387 30.7107 192.387 35.2614 192.387 37.3596C192.088 56.4618 194.399 76.327 193.747 81.45C193.312 84.1477 189.097 85.701 185.317 85.2105C181.891 84.6655 183.686 79.7605 182.979 77.853C182.87 77.4715 182.707 77.3352 182.543 77.2808C180.803 77.1718 152.523 77.2807 140.178 77.2262C136.751 77.3625 135.174 76.9265 134.304 77.4715C133.814 78.4797 133.978 79.8695 133.896 81.0412C134.114 85.2377 130.307 86.7365 126.5 86.682H125.983L125.956 86.6275ZM134.086 22.0997C133.896 38.1226 134.086 57.6063 134.032 73.8473C134.848 75.128 136.343 74.2015 140.232 74.474C151 74.474 163.346 74.474 173.951 74.474C178.682 74.4195 181.51 74.583 182.598 74.4195C183.686 71.9943 182.897 68.1793 183.142 65.536C183.169 50.7938 183.087 38.3406 182.679 23.2987C182.598 22.5629 182.543 21.8544 182.027 21.6364C180.422 21.6364 154.182 21.6364 141.428 21.6364C137.105 21.8544 135.31 21.1732 134.168 21.9907L134.086 22.0997Z" fill="#F9F8F6"/>
<path d="M227.058 23.6802C232.659 25.2607 238.451 30.4654 238.614 36.6784C238.614 45.1804 230.593 52.7286 230.076 61.5848C229.777 64.6368 230.076 68.1248 231.381 70.877C231.762 71.6128 232.197 72.076 232.551 71.8853C235.678 67.6615 236.956 61.8028 238.941 56.8433C240.382 51.8838 241.116 53.5461 240.11 57.6063C239.131 63.465 238.207 69.3238 238.016 75.1007C237.445 78.834 241.007 81.0957 240.735 84.5565C240.273 88.0445 235.895 89.1617 233.448 86.9817C231.3 85.4012 229.641 82.431 228.608 80.0602C223.414 68.8878 226.595 54.5816 229.396 43.7089C230.729 37.5504 231.871 30.0022 227.166 24.8519C226.813 24.3069 226.623 23.8709 226.84 23.7347L227.03 23.6802H227.058ZM266.813 76.9537C269.723 76.9537 273.067 76.6813 275.787 76.1635C280.681 74.9918 290.036 72.8663 288.268 80.6052C285.793 85.1015 279.294 84.5565 274.672 84.9107C261.946 85.2377 253.842 82.5127 251.748 72.3485C252.129 72.1578 252.755 72.8663 253.135 73.2205C256.589 76.4905 261.918 76.8992 266.514 76.9265H266.84L266.813 76.9537ZM283.373 33.8716C282.476 39.1036 275.923 38.8856 271.137 39.2399C264.039 39.3489 255.283 36.8964 252.591 30.0839C256.643 31.5281 258.954 32.3456 263.768 32.1276C268.445 31.9369 271.844 31.2011 274.889 30.2474C278.016 28.6397 283.101 29.7569 283.373 33.5991V33.8989V33.8716Z" fill="#F9F8F6"/>
<path d="M321.524 31.6644C321.606 32.3184 323.863 32.7816 324.624 33.0814C328.35 34.2259 326.528 35.6701 324.434 37.7139C323.455 38.8584 323.781 39.2671 323.727 41.0929V55.0448C323.564 64.7458 324.135 89.4615 323.945 93.7942C323.646 96.2194 321.144 97.6637 318.561 97.8544C316.304 98.2904 313.883 97.5274 314.074 95.2384C314.482 86.8182 315.597 55.2083 315.325 42.1284C315.189 41.6379 314.998 41.2564 314.427 41.8559C310.539 46.7336 306.134 51.9383 301.184 55.7533C300.777 55.9713 299.635 56.6526 299.689 55.7806C308.255 43.3001 316.494 27.2499 320.682 12.426C321.552 9.51022 322.313 6.64898 322.449 4.00574C322.476 3.35174 322.531 2.69774 322.857 2.45249C323.102 2.23449 323.591 2.28899 324.217 2.53424C327.534 3.95124 331.069 5.44998 334.223 7.11223C335.501 7.92972 336.834 8.33847 336.208 9.83722C334.985 11.445 332.211 11.2542 330.987 12.9165C327.969 18.9659 324.733 25.4787 321.497 31.3647V31.6644H321.524ZM384.72 39.3489C386.025 37.9319 388.88 33.9261 390.05 33.0541C390.458 32.7816 390.648 32.7816 391.219 33.1086C393.394 34.6074 396.521 37.3051 398.615 39.1581C399.649 40.3026 401.389 41.2019 400.247 42.4554C399.948 42.7006 399.54 42.9459 399.159 42.9459C396.657 42.9459 375.393 42.9459 368.731 42.9459C366.664 42.8641 366.311 42.8914 365.44 44.6081C359.893 57.1158 354.373 68.2338 347.874 78.3435C347.357 79.161 347.085 79.9512 348.364 79.9785C359.975 78.9703 373.245 77.9893 384.611 75.3188C384.856 75.1008 384.937 74.7738 384.856 74.3923C382.3 68.6425 377.867 63.4378 373.924 58.5328C373.544 57.2521 375.121 58.0151 376.181 58.5056C391.083 66.735 399.186 76.327 400.057 83.4937C400.464 86.3822 399.241 90.5242 395.76 90.7695C389.723 91.151 389.669 82.6217 387.113 78.9157C386.487 78.2345 385.835 78.0983 384.856 78.398C371.831 82.649 358.479 85.8645 341.565 89.1072C340.614 89.2707 339.907 89.5705 339.2 90.17C338.547 91.0692 338.085 92.7042 337.187 93.1674C336.562 93.4944 335.801 93.2764 335.094 92.5952C332.483 89.4615 330.58 85.156 329.03 81.4772C328.486 79.6787 330.117 79.8967 331.722 80.1965C334.577 80.578 338.574 80.6597 341.239 80.251C341.973 79.9512 342.544 79.5425 342.925 78.8068C347.385 68.1793 351.926 56.1893 353.965 43.7361C353.829 43.2729 353.313 43.0549 352.524 43.0004C346.46 42.8641 339.526 43.1639 333.87 43.7089C332.211 43.5999 331.205 41.6924 330.416 40.3299C330.199 39.8121 330.253 39.4579 330.58 39.3216C339.363 40.0301 348.309 40.5751 357.609 40.3571C365.522 40.3571 380.723 40.3571 382.871 40.3571C383.469 40.3026 383.768 40.2209 384.366 39.6759L384.693 39.3761L384.72 39.3489ZM375.502 12.6167C376.78 11.009 378.792 8.28397 380.016 7.00323C380.641 6.43098 380.641 6.37648 381.321 6.64898C383.387 7.87523 386.297 10.6002 388.309 12.2897C389.751 13.4887 391.872 15.6414 388.962 15.9957C381.294 15.9957 367.725 15.9957 359.213 15.9957C353.748 15.9684 348.064 16.1592 343.007 16.7859C341.457 16.4044 340.804 14.5787 339.852 13.2707C338.955 11.7175 340.614 12.1807 341.729 12.3442C350.049 13.5432 358.18 13.3525 367.072 13.3797C368.921 13.3797 370.797 13.3797 372.103 13.3797C373.816 13.298 374.088 13.625 375.23 12.9165L375.502 12.6167Z" fill="#F9F8F6"/>
<path d="M424.774 59.0778C425.046 58.9416 424.856 58.3966 426.651 59.1596C427.956 59.6501 429.506 60.2496 430.784 60.7673C432.796 61.7755 436.984 62.6475 434.509 64.8003C433.993 65.3725 432.062 65.7268 431.709 67.0075C428.473 75.782 425.481 83.4665 419.118 89.1617C418.711 89.1072 418.493 88.753 418.656 88.2625C422.11 79.27 425.4 69.1058 424.747 59.3776V59.0778H424.774ZM456.019 22.5629C455.856 23.2987 454.442 23.8982 453.571 24.1707C451.641 24.9337 451.777 24.9882 450.743 26.2417C446.121 33.6536 441.09 39.5124 436.331 45.8071C436.63 46.8971 438.724 46.1886 439.839 46.2976C447.426 45.3984 451.45 47.9326 446.012 38.8311C445.658 38.0954 445.767 37.6321 446.447 37.7411C453.925 41.1474 459.934 47.2513 457.977 53.3826C457.27 55.5898 454.142 56.5981 452.375 55.1266C450.499 54.0093 451.124 49.4041 449.112 48.5593C447.752 48.5048 444.815 49.2133 444.081 50.5213C443.075 61.2851 444.625 87.3632 444.081 93.2764C444.054 96.1104 437.528 98.0997 435.978 95.5654C435.108 93.3037 436.386 82.0767 436.277 69.0785C436.277 63.574 436.549 58.5328 436.277 53.1101C436.168 52.7558 435.978 52.5106 435.624 52.4288C434.265 52.2926 432.116 53.0828 430.594 53.3553C428.989 53.7641 427.303 53.9276 426.406 55.0176C425.21 56.2983 425.536 56.6526 424.285 56.8706C423.116 56.7071 422.001 54.5543 421.348 53.0556C420.532 51.0391 419.363 48.5321 419.01 46.6791C419.064 45.2621 420.505 45.8616 421.919 46.0796C424.203 46.4611 426.596 46.5428 428.989 46.5428C430.784 46.5973 431.953 46.4611 432.796 44.9351C437.691 36.3786 441.607 28.8304 444.38 20.0287C445.522 17.1674 444 13.8975 448.187 16.2137C450.39 17.5489 452.402 18.7479 454.197 20.0287C455.883 21.2549 456.073 21.7182 456.073 22.3722V22.5357L456.019 22.5629ZM429.479 23.2714C429.751 23.2714 429.941 22.9717 430.213 22.5084C432.47 16.1864 434.102 11.009 434.999 4.76873C435.244 3.43349 434.509 0.844747 436.603 1.71674C439.513 3.16099 442.395 4.68698 445.06 6.29473C447.426 7.57547 447.752 9.29222 444.951 10.1097C444.951 10.137 442.586 10.791 442.885 10.8455C439.594 15.26 436.277 20.4102 432.524 24.5794C432.144 25.3969 433.53 26.2689 434.237 27.1682C434.999 28.0674 435.57 28.9667 435.923 29.8114C437.745 33.2721 434.754 38.3951 430.757 36.5421C429.343 36.0244 428.445 33.3539 427.847 31.6916C426.379 27.9312 423.959 24.0344 420.94 20.7372C419.472 17.6307 428.554 22.8627 429.234 23.1624L429.506 23.2169L429.479 23.2714ZM459.527 75.5912C459.798 79.6242 454.713 82.6762 452.239 78.6705C451.369 76.7902 451.342 74.583 450.879 72.5665C449.982 67.9068 448.622 63.792 446.882 60.4131C446.447 58.2876 448.65 60.0316 449.873 60.9308C454.605 64.3643 459.309 69.4055 459.527 75.2643V75.5912ZM471.491 48.6683C473.83 48.9681 476.522 49.7311 478.888 50.3033C480.465 50.8483 483.755 51.2571 483.538 52.8376C483.021 54.3091 480.818 55.1266 480.601 56.8706C480.383 70.005 475.951 83.4665 464.612 90.824C460.941 93.1947 454.931 96.6009 450.662 97.0642C450.363 96.8462 450.553 96.2467 451.287 95.7289C468.473 85.7282 474.129 68.806 471.138 48.7228L471.491 48.6411V48.6683ZM478.534 18.2847C478.833 18.1484 478.969 17.8759 479.051 17.4672C479.268 15.1237 479.132 12.099 479.051 9.51022C478.942 6.70348 478.507 4.71423 478.126 2.99749C478.099 2.61599 478.181 2.31624 478.453 2.15274C478.371 1.85299 480.71 1.96199 482.069 2.34349C484.571 2.83399 486.964 3.29724 489.33 4.03299C493.653 5.25923 490.281 7.43923 488.623 8.93797C487.535 9.94622 487.861 11.118 487.78 13.6795C487.807 15.9412 487.644 17.7669 488.106 18.1757C489.846 18.9932 498.058 18.3119 499.336 18.5027C501.539 18.2302 502.654 15.8049 504.041 14.3335C505.047 13.2162 505.672 12.099 506.678 11.6902C508.337 11.9627 511.981 15.4234 513.83 16.7859C514.782 17.6579 517.338 19.4292 516.74 20.3012C516.522 20.7644 516.033 21.0914 515.625 21.1187C511.791 21.1732 504.367 21.1187 499.119 21.1187C491.233 21.1187 482.994 21.1187 480.764 21.1187C480.247 21.1187 479.894 21.1187 480.655 21.5274C481.77 22.4267 489.928 24.3069 487.426 26.5687C486.502 27.3589 484.924 27.7404 483.945 28.5579C481.145 32.1549 478.888 36.3514 475.788 39.8666C475.57 40.2481 474.836 41.0111 475.353 41.3654C478.996 41.8559 483.673 41.0929 487.535 40.9839C491.614 40.5206 495.856 40.7386 499.5 39.7304C499.744 39.5396 499.771 39.2399 499.636 38.8584C498.357 36.3786 495.91 33.8716 493.898 31.7734C493.137 30.9831 492.919 30.2474 493.49 30.1112C493.843 29.8387 495.747 30.6016 495.856 30.6561C502.518 33.1904 512.416 38.0681 513.286 45.1804C513.803 48.5321 510.676 51.8838 507.413 50.5486C504.53 49.6766 503.986 44.5264 501.675 42.8096C501.321 42.6461 500.886 42.5916 500.451 42.6461C491.722 45.0441 480.71 46.9243 467.983 49.1316C466.053 49.4586 465.319 52.7013 463.415 52.1563C461.62 51.2843 460.832 48.7501 459.934 47.1423C459.173 45.4528 458.221 43.7361 457.759 41.8831C457.623 40.1119 459.69 41.0929 461.049 41.2291C463.85 41.5834 467.304 41.7469 469.996 41.4744C471.002 41.1201 471.464 40.4661 471.845 39.3489C473.803 33.1904 475.489 28.2582 475.679 22.2359C475.543 21.7182 475.081 21.3912 474.346 21.2277C471.301 20.9552 467.684 21.2277 464.775 21.3367C462.327 21.3367 460.451 22.0724 458.439 21.6637C457.405 21.2822 456.345 19.5927 455.747 18.4209C455.393 17.6034 455.747 17.2764 456.59 17.3037C462.055 17.9032 470.295 18.7207 478.099 18.3392L478.425 18.2302L478.534 18.2847ZM488.351 47.7418C490.308 48.0688 492.701 48.7501 494.768 49.2678C497.379 50.1671 501.675 50.5758 499.418 53.2736C498.847 53.7641 498.14 54.3636 497.542 54.8541C496.672 55.6988 496.807 56.8706 496.78 58.0423C496.726 60.0588 496.699 63.2743 496.699 65.4815C496.699 70.7135 496.699 82.3765 496.699 84.175C496.699 84.9652 496.753 86.2187 497.324 86.8182C498.521 88.0445 501.784 87.8537 503.66 87.8265C505.591 87.7175 507.793 87.5267 509.207 86.3277C512.498 82.104 511.818 77.6622 513.341 71.313C514.619 67.6888 514.945 73.057 515.054 74.3378C515.57 77.6077 515.326 80.6052 516.712 83.6845C517.338 84.6382 518.915 85.2922 519.459 86.4095C520.927 89.4887 518.072 92.4317 515.353 93.549C511.845 95.2929 504.394 95.8107 498.983 95.5654C491.451 95.4564 488.024 93.5762 488.459 85.3195C488.514 79.7332 488.704 62.484 488.459 54.7451C488.487 52.7286 487.834 50.3851 487.589 48.4776C487.589 48.0961 487.698 47.8508 488.024 47.7691H488.405L488.351 47.7418Z" fill="#F9F8F6"/>
<path d="M567.508 45.7526C571.805 43.5454 576.998 40.2754 582.083 40.7114C586.652 40.6024 590.16 45.2894 586.978 48.8591C584.721 51.0663 578.766 51.3661 575.584 52.2926C565.686 54.1183 553.096 62.92 553.803 72.1578C555.407 86.8182 576.89 81.9405 586.896 81.014C592.172 80.1692 597.311 84.829 593.341 89.3525C588.365 92.895 582.491 92.7314 576.21 92.9767C545.591 94.2302 541.186 67.4435 560.03 51.6931C560.737 51.0663 561.39 50.4396 561.499 49.7583C561.607 49.2133 561.39 48.6411 561.064 48.0143C555.761 38.3951 558.453 25.6422 558.589 15.4507C558.589 12.535 558.154 9.21047 555.897 7.24848C554.755 6.18573 551.193 5.12298 554.456 3.89674C559.649 2.12549 566.448 4.60523 568.868 9.61922C570.472 12.9165 569.194 16.5952 567.699 20.5192C564.544 28.1492 562.423 36.5694 565.822 44.3901C566.203 45.1804 566.611 45.7526 567.155 45.7798H567.508V45.7526Z" fill="#F9F8F6"/>
<path d="M646.802 22.2904C647.726 21.1732 649.548 18.7752 650.5 17.7669C651.152 17.1129 651.288 17.0584 651.805 17.2219C653.817 18.3937 658.848 22.1269 660.072 24.1979C660.289 25.8874 658.603 25.6967 656.863 25.6694C652.131 25.6694 646.122 25.6694 641.553 25.6694C635.789 25.6422 629.453 25.7512 625.347 26.2689C623.634 26.4052 622.736 24.2797 621.866 23.0262C621.159 21.7454 622.464 22.0179 623.498 22.1542C629.398 22.9444 635.272 23.0534 641.309 23.0262C643.103 22.8627 645.224 23.4622 646.557 22.5629L646.829 22.2904H646.802ZM643.484 8.36572C644.463 7.19398 646.149 5.04123 647.046 4.14199C647.617 3.62424 647.753 3.59699 648.352 3.86949C648.732 4.06024 649.602 4.71423 650.717 5.58623C652.73 7.13948 659.745 12.0172 652.974 11.6902C648.433 11.6902 642.859 11.6902 638.453 11.6902C635.054 11.5812 631.139 11.9627 627.93 12.2625C627.332 12.099 626.788 11.1452 626.271 10.5185C625.836 9.80997 624.993 9.07422 625.129 8.14772C629.616 8.52922 634.646 9.31947 639.405 9.07422C640.846 8.93797 642.179 9.45572 643.239 8.63822L643.457 8.39297L643.484 8.36572ZM644.137 36.3514C645.034 35.1524 646.339 33.3266 647.264 32.3456C647.835 31.7734 647.916 31.7461 648.433 31.9096C650.364 33.0269 654.415 36.1334 655.911 37.9864C656.482 38.6949 656.101 39.8121 655.15 39.8666C653.899 39.9211 651.805 39.8666 650.065 39.8666C642.695 39.9211 635.707 39.5669 628.637 40.4389C627.413 39.8666 626.625 38.0681 625.782 36.9509C625.537 35.4521 627.876 36.7056 629.072 36.6511C632.77 37.1689 636.659 37.2506 640.493 37.2506C642.043 37.1689 643.022 37.5504 643.946 36.5966L644.164 36.3514H644.137ZM643.919 50.7938C644.844 49.5948 646.176 47.7691 647.101 46.7608C647.672 46.1886 647.808 46.1613 648.324 46.3248C648.705 46.4338 649.548 47.0606 650.636 47.9053C651.805 49.1043 658.603 53.0011 655.014 54.2001C651.451 54.2546 646.285 54.2001 642.695 54.2001C639.296 54.2001 636.033 54.1456 632.661 54.3636C631.139 54.3636 629.997 54.8541 628.583 54.7723C627.903 54.6088 627.386 53.6551 626.924 53.0283C624.912 50.4668 625.401 50.2488 628.528 50.9028C632.933 51.5841 638.018 51.5841 642.424 51.5568C642.886 51.6113 643.484 51.3116 643.702 51.0118L643.892 50.7666L643.919 50.7938ZM628.501 96.3284C626.462 96.0832 626.434 94.0394 626.679 92.4589C626.869 90.3062 627.087 87.1997 627.223 84.5565C627.576 77.2535 627.495 70.1413 626.815 63.029C627.495 60.74 633.097 65.1273 634.511 65.6178C635.789 66.3263 636.523 66.408 638.154 66.3535C640.493 66.081 643.81 67.0348 645.741 65.6723C647.345 64.4188 648.134 62.266 649.793 62.157C651.424 62.702 653.79 64.8548 655.422 66.1628C656.836 67.3073 658.44 68.806 656.455 70.1413C655.965 70.5773 655.911 70.4955 654.851 71.4493C654.171 72.076 654.116 73.0298 654.144 74.2015C654.116 77.199 654.279 81.45 654.524 84.066C654.986 88.7802 655.857 92.1047 650.037 92.9494C647.046 93.3037 646.53 92.2682 646.475 89.4342C646.366 88.5895 646.095 88.317 645.551 88.2897C644.055 88.2897 637.42 88.2897 635.897 88.2897C634.375 88.4805 635.082 90.5787 634.891 91.8322C635.054 94.9659 632.226 96.3012 628.99 96.3012H628.501V96.3284ZM645.931 69.0785C643.702 69.0785 638.562 69.0785 636.115 69.0785C635.462 69.024 635.326 69.0785 634.946 69.5145C634.864 73.493 634.864 81.1775 634.946 85.2377C635.082 85.4557 635.381 85.7282 635.571 85.6737C637.23 85.6737 639.596 85.6737 641.499 85.6737C643.239 85.6465 644.816 85.7555 646.067 85.6192C646.176 85.5102 646.366 85.3195 646.475 85.2105C646.611 81.45 646.475 76.3815 646.53 72.4848C646.394 70.223 646.91 69.8143 646.095 69.0785L645.959 69.024L645.931 69.0785ZM684.11 17.0312C684.11 17.2764 684.191 17.4127 684.382 17.4944C685.089 17.7124 688.461 17.5489 692.24 17.6034C695.721 17.6034 699.202 17.6034 700.425 17.6034C701.051 17.5762 701.486 17.4944 702.057 17.0312C703.28 16.1864 705.592 12.753 706.815 11.4995C707.686 10.6275 707.767 10.5457 708.556 10.9C710.867 12.2897 713.559 14.715 715.762 16.5952C717.013 17.7669 717.91 18.5299 717.801 19.1839C717.23 20.9552 714.728 20.0559 713.206 20.2739C707.713 20.2739 697.488 20.2194 696.047 20.3012C695.585 20.6009 695.857 20.9279 696.183 21.6092C702.002 30.6016 712.607 37.8501 723.294 40.7931C723.865 40.9839 725.415 41.5289 724.491 42.1829C722.342 43.1366 719.106 44.0631 717.013 45.6981C715.789 46.4883 714.837 47.6328 713.396 47.6601C703.172 42.1284 697.38 31.4464 693.328 21.4457C692.512 19.9469 691.642 20.3284 689.875 20.2739C688.352 20.2739 686.339 20.2739 684.98 20.2739C683.158 20.1922 682.533 20.4102 681.744 21.7999C679.269 26.7049 676.305 31.2284 673.178 34.9889C672.825 35.4794 672.743 35.8609 673.015 36.1061C674.456 36.8419 677.339 36.8146 679.215 37.0054C681.88 36.9236 684.98 37.6866 687.346 36.5966C689.086 35.4521 690.527 32.5091 692.213 31.6099C693.654 31.6916 696.972 35.0161 698.467 36.2696C699.202 36.9781 700.724 38.3134 700.017 39.0764C699.582 39.7576 698.821 39.8121 697.652 39.7849C693.11 39.7849 686.557 39.7849 682.913 39.7849C679.405 39.5941 677.176 40.4389 674.375 40.1119C673.477 39.8121 672.77 38.6131 672.036 37.8774C671.737 37.6049 671.411 37.5231 671.057 37.6049C666.543 41.3926 661.54 46.3793 655.911 48.9136C654.905 49.2951 654.361 48.9953 655.204 47.9871C663.144 40.6296 669.806 31.6099 673.45 21.4457C673.233 19.5927 670.133 20.5192 668.746 20.3829C666.027 20.2739 663.199 21.2277 660.833 20.8462C659.772 20.4374 658.766 18.8024 658.114 17.6034C657.461 15.6959 660.153 16.8404 661.404 16.8677C665.292 17.3582 668.719 17.6579 673.015 17.6034C674.13 17.5217 675 17.0857 675.435 16.0774C677.012 11.445 678.209 5.64073 678.345 0.844747C679.106 -1.22625 682.614 1.44425 683.974 1.68949C686.176 2.67049 689.358 3.78774 691.098 5.25923C692.947 7.16673 687.889 8.44747 687.291 9.21047C685.741 11.0635 684.844 14.8784 684.028 16.7859V17.0584L684.11 17.0312ZM697.652 50.3851C699.011 49.1316 700.616 46.2703 702.247 45.3983C704.069 45.6981 707.387 48.9136 709.208 50.2761C710.514 51.3388 712.472 53.0011 710.323 53.8731C709.616 54.0093 708.365 53.9003 705.972 53.9276C701.377 53.9276 687.618 53.8731 685.469 53.9821C684.463 54.2818 684.382 55.0176 683.947 56.2711C683.484 58.3966 681.336 62.9473 681.499 64.9365C681.771 65.3453 682.56 65.2635 684.137 65.2635C687.645 65.2635 694.117 65.2635 695.911 65.2635C696.509 65.2363 696.972 65.1545 697.488 64.7458C698.576 64.228 700.588 60.6855 701.921 60.7945C703.824 61.4758 707.196 64.228 708.828 65.536C709.915 66.5715 711.221 67.2255 709.915 68.6153C708.474 69.896 706.38 70.7408 706.19 73.0025C703.743 86.0007 700.534 96.9279 686.72 96.9552C685.442 96.4647 685.252 94.6117 684.436 93.5489C682.397 89.843 677.393 88.5895 674.348 86.0007C674.212 85.592 675.082 85.483 676.197 85.6737C683.212 86.6002 686.475 88.5077 691.452 86.8455C696.21 82.5672 697.108 75.8637 697.842 69.3783C697.706 66.9803 696.265 68.2065 694.008 67.934C689.847 67.934 683.131 67.934 681.363 67.934C680.874 68.0158 680.466 68.0703 680.167 68.588C679.269 69.9505 678.834 73.1388 677.774 74.5285C676.605 76.5177 669.562 77.9075 668.909 74.8555C670.296 68.6425 674.184 61.8573 675.49 55.4808C675.544 55.0448 675.49 54.6633 675.191 54.4453C671.03 53.1373 666.407 54.8541 662.519 54.3363C661.54 53.9003 659.664 51.9383 659.99 50.7121C660.534 50.1943 662.41 50.7121 663.77 50.8211C669.181 51.4206 675.055 51.3933 680.792 51.3933C684.925 51.3933 692.811 51.3933 695.177 51.3933C695.966 51.3933 696.645 51.3116 697.325 50.7393L697.652 50.4668V50.3851Z" fill="#F9F8F6"/>
<path d="M763.702 37.3051C767.128 28.9394 773.029 17.7669 783.689 20.5737C791.928 22.1814 797.013 34.3076 797.176 43.8451C798.318 63.683 790.351 80.9595 772.975 90.0065C772.241 90.8512 753.994 98.6719 757.801 94.9659C776.809 86.6547 787.468 69.3238 786.761 47.7963C786.625 40.6569 786.082 30.4382 780.698 25.9964C776.048 23.1897 772.159 27.2772 768.733 33.5174C766.041 38.5586 765.035 46.9516 766.367 52.0473C766.992 55.5626 769.576 59.0506 767.917 62.7565C763.457 69.1058 757.258 60.9036 756.088 55.5898C754.919 51.8021 754.566 47.3058 754.756 43.3819C754.185 34.3894 765.116 10.5185 756.958 7.00323C756.387 6.75798 756.116 6.40373 756.496 5.94048C758.155 4.35999 761.554 4.22374 763.485 5.50448C766.15 7.05773 766.965 10.9272 766.993 13.952C767.564 21.8817 763.24 29.4572 763.566 37.2779H763.702V37.3051Z" fill="#F9F8F6"/>
<path d="M867.605 70.1685C867.578 72.621 867.251 76.7085 865.022 78.289C862.166 80.251 859.094 77.853 859.202 74.474C858.93 72.3485 859.637 69.2965 859.202 67.4708C859.039 67.2255 858.767 67.171 858.332 67.3073C855.395 68.697 851.806 71.858 850.446 74.692C846.177 90.2245 869.862 84.2567 877.775 83.1395C881.609 83.1667 884.056 86.9272 881.854 89.843C879.488 92.35 876.143 92.5679 872.554 93.0312C866.109 93.7942 855.966 93.4127 851.289 90.1972C840.657 82.213 845.633 71.6128 857.652 64.2008C859.23 63.0018 859.583 62.4295 859.474 60.2223C859.148 56.9523 859.665 50.9573 855.586 50.4668C848.924 50.5758 845.253 57.9333 842.642 62.811C840.576 67.0348 833.56 67.3618 833.533 61.7755C834.077 56.9251 838.645 53.4643 841.446 49.7856C845.089 45.2076 847.89 40.5206 850.174 35.2886C850.365 34.7164 850.827 33.6809 850.011 33.4901C844.301 33.4901 837.285 31.2556 836.524 24.8519C836.578 24.6067 836.769 24.5249 837.068 24.6339C837.911 25.0154 839.134 25.9964 840.467 26.4052C844.138 27.5497 848.461 28.0947 852.105 26.9502C853.166 26.2962 853.193 24.4977 853.193 22.9989C853.193 21.0642 852.377 19.1567 850.882 18.4754C850.582 18.2574 850.256 17.9577 850.338 17.5489C852.295 15.26 858.278 14.933 859.61 18.1212C861.16 21.6637 865.429 19.7562 868.339 21.1187C873.506 24.1979 866.082 29.1847 863.091 30.3836C860.861 31.6099 858.06 31.8006 856.021 33.1359C853.111 38.3134 850.854 44.2539 847.618 49.4313C847.238 50.3578 847.917 50.0308 848.624 49.7038C852.676 47.4148 857.625 46.7063 861.487 49.1043C863.009 50.0036 864.097 51.7748 864.967 53.4371C866.082 54.7723 866.816 52.6196 867.496 51.5841C884.029 20.6827 909.889 44.4991 889.631 53.7368C882.506 57.2793 874.022 58.5601 867.442 62.7293C866.762 64.3643 867.822 67.9613 867.632 69.7053V70.114L867.605 70.1685ZM858.305 25.4242C858.224 25.6967 858.223 25.8874 858.495 25.8057C859.964 25.2607 861.541 24.4159 862.547 23.5984C862.928 23.2169 863.091 22.9444 863.091 22.6719C863.091 22.1269 862.275 21.6637 860.426 20.9279C860.154 20.8462 859.964 20.8462 859.882 21.2004C859.529 22.6719 858.767 23.8709 858.305 25.4514V25.4242ZM882.071 50.0853C883.92 48.8046 886.667 46.8426 887.428 44.7171C888.353 42.6189 886.993 40.1664 884.301 40.2209C875.627 41.2291 869.943 49.8401 866.517 58.8326C871.575 56.6798 877.014 53.3281 881.745 50.3033L882.071 50.0853Z" fill="#F9F8F6"/>
<path d="M25.0715 186.825C18.7085 200.423 32.3319 206.963 45.0036 206.745C51.8562 206.99 59.3069 205.982 63.4946 204.947C66.2682 204.429 68.9603 203.175 71.8971 203.339C75.5952 203.53 78.2329 205.819 78.2057 208.762C77.6891 215.465 69.069 215.002 63.4674 216.065C53.7868 217.1 39.1573 217.209 31.2986 213.83C20.3128 210.179 15.8805 196.881 23.168 187.425C23.9566 186.171 25.1803 185.626 25.1259 186.471L25.0715 186.825ZM50.1974 157.15C49.9255 156.632 47.1519 156.523 45.4931 156.169C38.0696 154.725 30.8907 150.992 26.4855 144.752C25.8873 143.253 27.3557 143.989 28.2531 144.506C30.5372 145.678 32.8214 146.332 35.4591 146.741C46.0642 149.248 62.5972 141.7 68.9059 153.826C70.1024 160.039 62.1893 158.676 58.4096 159.548C51.9106 161.755 46.0914 166.279 39.9458 169.712C37.9608 170.53 38.5862 169.14 39.9458 167.996C43.3993 164.535 47.4238 161.265 50.1974 157.341V157.15Z" fill="#F9F8F6"/>
<path d="M149.069 188.951C154.318 191.458 154.318 198.325 148.036 198.325C145.888 198.216 143.631 196.962 141.7 195.9C140.504 195.164 139.579 195.382 138.655 196.445C133.216 202.957 127.044 210.587 119.103 210.151C113.067 209.361 110.592 201.649 110.755 196.036C110.429 186.689 115.677 178.051 121.523 170.911C121.768 169.031 120.327 166.824 119.81 164.944C117.907 160.338 116.574 154.153 112.55 151.073C109.912 148.948 115.188 149.493 116.411 150.038C122.638 151.782 124.868 158.976 127.261 164.262C127.533 164.753 127.859 165.243 128.376 165.516C134.848 163.172 140.042 159.603 147.737 158.84C148.471 158.676 149.423 158.485 149.858 157.831C151.218 154.125 151.462 148.43 149.994 144.724C149.341 142.899 147.166 142.381 145.752 141.345C145.344 140.882 146.051 140.337 147.112 140.065C148.77 139.656 150.483 139.492 152.278 139.683C160.246 140.255 162.584 146.577 159.593 154.071C158.913 156.523 157.418 158.513 161.333 158.567C182.462 160.774 192.333 178.868 185.861 195.927C178.22 213.476 156.248 220.043 138.492 219.634C136.996 218.926 139.307 218.435 140.912 218.245C151.354 216.446 161.85 212.032 169.11 204.184C181.809 191.676 179.226 165.625 159.158 162.791C157.853 162.573 156.847 162.818 156.275 163.99C153.883 169.958 151.272 175.98 148.091 181.73C146.432 185.163 143.658 186.853 148.716 188.76L149.124 188.978L149.069 188.951ZM124.215 175.844C123.971 175.435 123.264 176.416 122.774 177.097C119.022 182.138 116.819 188.978 117.553 195.164C118.75 207.672 129.491 197.208 134.141 191.621C134.277 191.376 134.521 190.886 134.657 190.64C130.85 186.362 126.826 181.43 124.379 176.089L124.215 175.844ZM148.961 162.709C148.988 162.191 147.71 162.328 146.867 162.491C140.83 163.472 134.385 165.87 129.872 169.958C130.47 172.519 132.509 175.19 134.005 177.451C135.582 179.577 137.458 181.702 139.552 183.228C140.395 183.583 140.884 181.975 141.428 181.212C144.637 175.517 147.166 169.249 148.906 163.009L148.961 162.736V162.709Z" fill="#F9F8F6"/>
<path d="M209.6 156.987C209.682 156.006 210.389 154.343 211.15 154.725C216.181 160.12 223.495 156.687 229.777 154.834C241.986 150.856 254.794 146.441 267.33 143.008C273.611 141.1 286.854 138.757 287.425 148.158C286.881 153.036 280.98 151.619 277.282 151.51C274.019 151.319 270.511 151.373 267.411 152.245C250.742 158.594 245.358 172.219 245.956 194.128C246.201 198.216 246.854 202.44 249.056 205.492C251.259 208.925 257.812 210.56 262.408 210.179C266.133 210.179 269.614 208.843 273.203 209.988C276.303 210.996 277.01 214.648 275.542 217.1C273.856 220.316 267.656 221.079 264.04 220.97C248.54 221.487 239.702 212.522 239.702 197.535C238.207 176.47 246.663 157.886 262.272 151.155C262.843 150.856 263.251 150.61 263.197 150.529C258.057 151.046 252.755 153.063 247.561 155.079C240.001 157.722 231.463 164.29 223.196 166.933C217.132 169.167 209.926 163.281 209.573 157.314V156.932L209.6 156.987Z" fill="#F9F8F6"/>
<path d="M332.755 214.866C332.429 231.706 307.112 232.687 305.617 215.819C304.638 197.153 332.021 196.145 332.755 214.539V214.866ZM309.478 214.866C309.614 226.937 327.452 227.782 328.812 215.792C329.927 202.194 310.022 200.859 309.478 214.511V214.838V214.866Z" fill="#F9F8F6"/>
</g>
<defs>
<clipPath id="clip0_105_278">
<rect width="897" height="228" fill="white"/>
</clipPath>
</defs>
</svg>
