<?xml version="1.0" encoding="UTF-8"?>
<svg id="_レイヤー_1" xmlns="http://www.w3.org/2000/svg" version="1.1" viewBox="0 0 24 24">
  <!-- Generator: Adobe Illustrator 29.1.0, SVG Export Plug-In . SVG Version: 2.1.0 Build 142)  -->
  <polygon points="7.3 6.7 15.4 17.2 16.6 17.2 8.7 6.7 7.3 6.7"/>
  <path d="M23.9,7c0-1.3-.3-2.1-.6-2.9-.3-.8-.8-1.5-1.4-2.1-.7-.7-1.3-1.1-2.1-1.4-.8-.3-1.6-.5-2.9-.6-1.3,0-1.7,0-5,0s-3.7,0-5,0c-1.3,0-2.1.3-2.9.6-.8.3-1.5.8-2.1,1.4-.6.6-1.1,1.3-1.4,2.1-.3.8-.5,1.6-.6,2.9,0,1.3,0,1.7,0,5s0,3.7,0,5c0,1.3.3,2.1.6,2.9.3.8.8,1.5,1.4,2.1.6.6,1.3,1.1,2.1,1.4.8.3,1.6.5,2.9.6,1.3,0,1.7,0,5,0s3.7,0,5,0c1.3,0,2.1-.3,2.9-.6.8-.3,1.5-.8,2.1-1.4.6-.6,1.1-1.3,1.4-2.1.3-.8.5-1.6.6-2.9,0-1.3,0-1.7,0-5s0-3.7,0-5ZM14.8,18.6l-3.5-4.6-4,4.6h-2.2l5.2-5.9-5.5-7.2h4.6l3.2,4.2,3.7-4.2h2.2l-4.9,5.6,5.7,7.6h-4.5Z"/>
</svg>