<?xml version="1.0" encoding="UTF-8"?>
<svg id="_レイヤー_1" xmlns="http://www.w3.org/2000/svg" version="1.1" viewBox="0 0 24 24">
  <!-- Generator: Adobe Illustrator 29.6.1, SVG Export Plug-In . SVG Version: 2.1.1 Build 9)  -->
  <path class="st0" d="M12,0c3.26,0,3.67.01,4.95.07,1.28.06,2.15.26,2.91.56.79.31,1.46.72,2.13,1.38.61.6,1.08,1.33,1.38,2.13.3.76.5,1.64.56,2.91.06,1.28.07,1.69.07,4.95s-.01,3.67-.07,4.95c-.06,1.28-.26,2.15-.56,2.91-.3.8-.77,1.53-1.38,2.13-.6.61-1.33,1.08-2.13,1.38-.76.3-1.64.5-2.91.56-1.28.06-1.69.07-4.95.07s-3.67-.01-4.95-.07c-1.28-.06-2.15-.26-2.91-.56-.8-.3-1.53-.77-2.13-1.38-.61-.6-1.08-1.33-1.38-2.13-.3-.76-.5-1.64-.56-2.91C.02,15.67,0,15.26,0,12s.01-3.67.07-4.95c.06-1.28.26-2.15.56-2.91.3-.8.77-1.53,1.38-2.13.6-.61,1.33-1.08,2.13-1.38.77-.3,1.63-.5,2.91-.56C8.33.02,8.74,0,12,0ZM12,6c-1.59,0-3.12.63-4.24,1.76-1.12,1.12-1.76,2.65-1.76,4.24s.63,3.12,1.76,4.24c1.12,1.12,2.65,1.76,4.24,1.76s3.12-.63,4.24-1.76c1.12-1.12,1.76-2.65,1.76-4.24s-.63-3.12-1.76-4.24c-1.12-1.12-2.65-1.76-4.24-1.76h0ZM19.8,5.7c0-.4-.16-.78-.44-1.06-.28-.28-.66-.44-1.06-.44s-.78.16-1.06.44c-.28.28-.44.66-.44,1.06s.16.78.44,1.06c.28.28.66.44,1.06.44s.78-.16,1.06-.44c.28-.28.44-.66.44-1.06ZM12,8.4c.95,0,1.87.38,2.55,1.05.68.68,1.05,1.59,1.05,2.55s-.38,1.87-1.05,2.55-1.59,1.05-2.55,1.05-1.87-.38-2.55-1.05c-.68-.68-1.05-1.59-1.05-2.55s.38-1.87,1.05-2.55c.68-.68,1.59-1.05,2.55-1.05h0Z"/>
</svg>