<?xml version="1.0" encoding="UTF-8"?>
<svg id="_レイヤー_2" data-name=" レイヤー 2" xmlns="http://www.w3.org/2000/svg" viewBox="0 0 445.28 371.16">
  <g id="_レイヤー_1-2" data-name=" レイヤー 1-2">
    <path d="M4.28,63.76c2.74,2.2,5.69,3.05,9.21,3.08,2.43.01,4.87.09,7.3.21,15,1.02,29.82,3.97,44.1,8.64,11.23,3.93,22.08,8.9,32.34,14.92,2.59,1.52,5.13,3.13,7.64,4.78,11.02,7.56,21.17,16.36,30.09,26.32,4.43,5.15,8.64,10.61,12.36,16.37-8.49.43-16.85,2.82-23.42,8.54-4.36,3.8-8.07,7.98-10.59,13.26-2.51,5.28-3.66,10.83-3.59,16.65.04,2.79.65,5.63,1.4,8.29.76,2.73,2.09,5.38,3.57,7.77s3.46,4.64,5.59,6.46c2.14,1.82,4.58,3.46,7.15,4.63,5.28,2.4,10.94,3.43,16.72,3.22,5.92-.21,11.38-2.18,16.51-5.01,4.13-2.27,7.97-5.58,10.85-9.32,1.74-2.26,3.37-4.68,4.66-7.23.93-1.84,1.65-3.78,2.3-5.74,6.33,7.56,11.92,15.93,16.46,24.67,3.86,7.97,6.75,16.37,8.72,25.01,2.09,10.63,2.78,21.49,2.29,32.3-.99,14.15-3.95,28.09-8.36,41.57-.37,1.05-.72,2.1-1.11,3.15-.83,1.53-1.22,3.14-1.17,4.85-.24,1.64-.05,3.26.57,4.85,1,2.83,3.44,5.83,6.24,7.06,3,1.33,6.56,1.86,9.69.6,2.83-1.13,5.97-3.25,7.06-6.24,3.78-10.35,6.99-20.91,9.08-31.73,1.98-10.25,2.97-20.71,3.08-31.15.1-9.01-.65-18.03-2.38-26.87-1.86-9.55-4.41-18.87-8.33-27.8-3.95-8.99-8.88-17.49-14.5-25.53-5.87-8.38-12.59-16.55-20.62-22.96-2.04-1.63-4.18-3.2-6.39-4.64-2.15-8.31-6.48-15.88-11.14-23.03-10.07-15.46-22.97-29.3-37.49-40.66-14.7-11.49-31.06-20.93-48.46-27.66-17.45-6.73-35.7-11.3-54.38-12.75-5.25-.41-10.51-.68-15.78-.72-2.98-.02-6.52,2.04-8.43,4.21C1.09,48.45-.32,52.2.06,55.33c.39,3.15,1.66,6.37,4.21,8.43h0ZM147.25,180.83c-.83.35-1.69.65-2.56.9-1.01.14-2.01.22-3.02.23-.89-.12-1.77-.28-2.64-.5-.62-.26-1.23-.57-1.82-.88-.33-.27-.66-.56-.98-.84-.29-.39-.57-.8-.82-1.22-.22-.55-.42-1.11-.58-1.68-.08-.68-.13-1.36-.14-2.04.12-.88.3-1.75.53-2.62.45-1.06.97-2.09,1.55-3.09.77-1.01,1.6-1.96,2.5-2.86.86-.67,1.76-1.28,2.7-1.83.89-.38,1.79-.69,2.73-.96,2.3-.38,4.62-.57,6.96-.55,1.53.16,3.03.43,4.52.78,0,.5-.02.99-.04,1.49-.23,2.25-.65,4.47-1.27,6.65-.59,1.44-1.28,2.85-2.07,4.19-.75.97-1.57,1.9-2.44,2.76-.98.77-2.02,1.45-3.1,2.09h-.02Z" style="fill: #231815;"/>
    <path d="M217.68,311.97c-4.65,3.59-9.1,7.43-13.34,11.5-1.38-8.66-3.64-17.23-7.12-25.28-2.34-5.41-5.08-10.69-8.21-15.68-1.76-2.8-5.2-4.94-8.4-5.57-3.2-.62-7.23.05-9.88,2.01-2.74,2.02-5.04,4.93-5.57,8.4-.52,3.53.09,6.82,2.01,9.88,1.35,2.16,2.61,4.39,3.79,6.65,2.89,6.09,5.11,12.48,6.64,19.05,1.53,7.98,2.04,16.09,1.72,24.2-.22,2.31-.58,4.68-.29,6.93.67,5.09,3.16,9.72,7.91,12.11,4.63,2.33,10.13,1.69,14.42-1.07,1.68-1.07,3.17-2.53,4.52-4,1.39-1.54,2.67-3.21,3.98-4.82,2.62-3.19,5.32-6.3,8.15-9.31,2.95-3.14,6.04-6.15,9.24-9.02,3.58-3.06,7.31-5.96,11.42-8.27,2.45-1.11,4.96-2.01,7.57-2.65,1.94-.3,3.9-.48,5.88-.53,3.2-.07,6.81-2.09,8.88-4.44,2.16-2.45,3.64-6.4,3.24-9.7-.4-3.33-1.75-6.72-4.44-8.88-2.84-2.3-6.03-3.32-9.7-3.24-11.59.26-23.28,4.67-32.44,11.74h.01Z" style="fill: #231815;"/>
  </g>
  <g>
    <path d="M181.8,5.65c0,.15.1.25.25.25,6.9,0,12.45-.15,17.3-.5.2,0,.25.1.25.25v5c0,.15-.05.25-.25.25-5.45-.4-11.75-.5-19.7-.5h-13.25c-.15,0-.25.1-.25.25v7.95c0,9.45-1.3,17.15-7.2,25.05-.1.15-.25.15-.35.05-1.7-1.4-3.2-2.4-4.7-3.3-.1-.05-.1-.15-.1-.2s0-.1.05-.15c6-7.25,6.9-12.95,6.9-21.45,0-4.4-.1-8.05-.5-12.75,0-.2.1-.25.25-.25,3.65.2,8.35.25,15.35.3.2,0,.25-.1.25-.25v-1.45c0-1.25-.05-2.55-.35-3.7-.05-.2.1-.3.25-.3,1.95.1,4.35.25,5.9.4.95.1,1.2.7.4,1.4-.45.4-.5,1.3-.5,2.45v1.2ZM182.45,16.2h1.85c4.55,0,7.9,0,12.05-.4.2,0,.25.1.25.25v5.15c0,.15-.05.25-.25.25-4.15-.4-7.5-.4-12.05-.4h-1.85c-.15,0-.25.1-.25.25v4.45c0,.15.1.25.25.25,5.75,0,9.6,0,12-.1.2,0,.25.1.25.25-.05,2-.05,5.15-.05,8.2s.1,6.45.3,9.6c0,.15-.1.25-.25.25h-5.3c-.15,0-.25-.1-.25-.25v-2.35c0-.15-.1-.25-.25-.25h-15.45c-.15,0-.25.1-.25.25v2.35c0,.15-.1.25-.25.25h-5.15c-.15,0-.25-.1-.25-.25.2-3.4.3-6.2.3-9.6,0-3.05-.05-6.2-.1-8.2,0-.2.1-.25.25-.25,1.85.05,4.65.1,8.5.1.2,0,.25-.1.25-.25v-4.75c0-3.85,0-7.1-.65-9.75-.05-.2.05-.3.2-.3,2.4.2,5,.55,6.15.8.95.2,1.15.8.55,1.45-.65.75-.8,1.5-.8,2.75,0,.15.1.25.25.25ZM173.2,36.6c0,.15.1.25.25.25h15.45c.15,0,.25-.1.25-.25v-5.75c0-.15-.1-.25-.25-.25h-15.45c-.15,0-.25.1-.25.25v5.75Z"/>
    <path d="M251.86,7.25v4.6c0,.15-.05.25-.25.25-3.05-.25-5.65-.3-10.3-.3-.15,0-.25.1-.25.25v2.1c0,.15.1.25.25.25,3.6,0,6.2-.05,8.5-.2.2,0,.25.1.25.25-.1,2.4-.1,6.85-.1,12.45s.1,11.15.1,13.1c0,3.9-2.5,4.65-6.45,4.7-.2,0-.3-.05-.35-.25-.35-1.7-.9-3.3-1.6-4.9-.05-.1,0-.25.2-.2.65.1,1.15.15,1.75.15,1.05,0,1.45-.3,1.45-1.75v-3.7c0-.15-.1-.25-.25-.25h-3.5c-.15,0-.25.1-.25.25.05,3.55.15,7.3.35,10.15,0,.15-.1.25-.25.25h-4.9c-.15,0-.25-.1-.25-.25.2-2.85.3-6.6.35-10.15,0-.15-.1-.25-.25-.25h-3.3c-.15,0-.25.1-.25.25,0,3.7.05,7,.15,10.35,0,.15-.1.25-.25.25h-4.9c-.15,0-.25-.1-.25-.25.3-4.95.35-9.95.35-16,0-6.7,0-11.7-.1-13.9,0-.2.1-.25.25-.25,2,.1,4.5.15,8.3.15.2,0,.25-.1.25-.25v-2.1c0-.15-.05-.25-.25-.25-4.2.05-6.7.15-9.6.4-.15,0-.25-.1-.25-.25v-3.2c0-.1-.1-.15-.2,0-.75,1.05-1.5,2.25-2.15,3.35-.1.2-.25.2-.4.1-1.95-1.2-3.8-3.1-5.6-5.15-.15-.15-.25-.15-.35,0-.65.8-1.4,1.6-2.2,2.4-.05.05-.05.15.05.15,1.7.15,3.6.35,4.55.5.85.15,1.05.65.5,1.2-.4.4-.55.8-.55,2.25v.9c0,.15.1.2.25.2,1.85,0,3.3-.1,4.55-.2.2,0,.25.1.25.25v4.1c0,.15-.05.25-.25.25-1.25-.1-2.7-.2-4.55-.2-.15,0-.25.05-.25.2v2.4c0,.15.1.25.25.25,2.5-.05,4.3-.15,5.7-.25.2,0,.25.1.25.25v4.35c0,.15-.05.25-.25.25-1.9-.15-4.5-.25-8.55-.25-4.5,0-7.1.1-9,.25-.15,0-.25-.1-.25-.25v-4.35c0-.15.1-.25.25-.25,1.5.15,3.4.2,6.35.25.2,0,.25-.1.25-.25v-2.4c0-.15-.05-.25-.25-.25-2.05.05-3.5.15-4.85.25-.15,0-.25-.1-.25-.25v-4.1c0-.15.1-.25.25-.25,1.35.15,2.8.2,4.85.25.2,0,.25-.1.25-.25v-.95c0-1-.1-2-.3-2.95-.05-.2-.15-.2-.25-.1-1.75,1.65-3.65,3.2-5.6,4.5-.15.1-.25.1-.35-.05-1.05-1.3-2-2.25-3.1-3.3-.05-.05-.1-.15-.1-.2,0-.1.1-.15.55-.4,3.9-2.2,7.05-5.25,8.7-7.7.9-1.3,1.35-2.25,1.65-3.15.05-.1.1-.15.2-.15.2,0,.65.2,1.15.4,1.05.45,2.2.95,3.2,1.45.8.4.8,1.15.05,1.45-.2.1-.2.2-.05.35,1.65,1.6,3.45,3.05,5.3,3.95.2.1.3.1.3-.1v-.25c0-.15.1-.25.25-.25,2.9.25,5.4.35,9.6.4.2,0,.25-.1.25-.25-.05-2.7-.2-4.45-.55-6.3-.05-.2.1-.3.25-.3,1.8.2,3.85.4,5.3.7,1.1.2,1.25.85.4,1.55-.55.45-.7,1.55-.7,4.35,0,.15.1.25.25.25,2.1,0,3.8-.05,5.35-.1.15,0,.15-.1,0-.2-1.4-.95-2.9-1.85-4.25-2.55-.2-.1-.25-.2-.15-.35l2.3-3.1c.1-.15.2-.2.4-.1,1.6.75,3.55,1.75,5.35,2.9.15.1.2.2.1.35l-1.9,2.7c-.1.15-.1.25.05.25,1-.05,2.05-.1,3.05-.2.2,0,.25.1.25.25ZM224.5,28.95c-.05,1.8-.05,3.45-.05,6s.05,5.75.2,8.4c0,.15-.1.25-.25.25h-4.75c-.15,0-.25-.1-.25-.25v-1.65c0-.15-.1-.25-.25-.25h-3.95c-.15,0-.25.1-.25.25v1.8c0,.15-.1.25-.25.25h-4.75c-.15,0-.25-.1-.25-.25.15-2.75.2-6,.2-8.55s0-4.2-.1-6c0-.2.1-.25.25-.25,2.05.1,4.15.1,7.25.1s4.95,0,6.95-.1c.2,0,.25.1.25.25ZM215.2,32.8c-.15,0-.25.1-.25.25v3.85c0,.15.1.25.25.25h3.95c.15,0,.25-.1.25-.25v-3.85c0-.15-.1-.25-.25-.25h-3.95ZM236.11,21.95c.15,0,.25-.1.25-.25v-2.65c0-.15-.1-.25-.25-.25h-3.3c-.15,0-.25.1-.25.25v2.65c0,.15.1.25.25.25h3.3ZM232.8,26.25c-.15,0-.25.1-.25.25v2.75c0,.15.1.25.25.25h3.3c.15,0,.25-.1.25-.25v-2.75c0-.15-.1-.25-.25-.25h-3.3ZM244.81,21.95c.15,0,.25-.1.25-.25v-2.65c0-.15-.1-.25-.25-.25h-3.5c-.15,0-.25.1-.25.25v2.65c0,.15.1.25.25.25h3.5ZM241.31,26.25c-.15,0-.25.1-.25.25v2.75c0,.15.1.25.25.25h3.5c.15,0,.25-.1.25-.25v-2.75c0-.15-.1-.25-.25-.25h-3.5Z"/>
    <path d="M298.89,24.71c0,8.32-5.71,14.4-13.05,17.59-.09.05-.13.05-.18.05-.09,0-.13-.05-.31-.27-1.31-1.4-2.7-2.34-4.54-3.33-.09-.04-.18-.18-.04-.23,9.09-3.15,12.28-9.18,12.28-13.99,0-5.22-2.88-9.22-8.59-10.53-.13-.04-.22,0-.27.18-2.16,8.73-5.99,18.22-9.58,23.04-1.71,2.29-3.29,3.46-5.35,3.46-4.86,0-9.63-6.17-9.63-12.33,0-8.55,8.28-19.12,22.05-19.12,10.26,0,17.23,6.61,17.23,15.48ZM278.5,14.18c.04-.18,0-.27-.23-.23-6.84,1.26-13.45,8.05-13.45,13.95,0,3.46,2.12,6.48,3.87,6.48,1.04,0,2.11-.9,4.18-4.95s4.37-9.81,5.62-15.25Z"/>
    <path d="M339.19,25.15v.65c0,.2,0,.3.1.5.65,1.2,1.35,2.35,2.1,3.4.1.15.25.15.35.05,1-.9,1.85-1.7,2.35-2.3.65-.75,1.25-1.45,1.65-2.2.1-.2.2-.2.45-.05,1.35.8,3.1,2.2,3.9,3.05.65.7.4,1.25-.55,1.3-.65.05-1.25.3-2.2,1.05l-2.9,2.25c-.2.15-.2.2-.05.35,2.6,2.6,5.55,4.5,8.5,5.75.1.05.15.1.15.15s-.15.15-.35.3c-1.3,1.1-2.4,2.2-3.6,3.55-.1.1-.2.2-.35.1-4.05-2.6-7.15-5.65-9.55-9.55-.1-.15-.15-.1-.15.05.05,2.8.2,4.6.2,5.65,0,3.95-1.4,5.55-8.3,5.75-.15,0-.3-.1-.35-.25-.6-1.75-1.25-3-2.05-4.75-.05-.1,0-.2.15-.2.8.05,1.8.15,2.65.15,2.15,0,2.65-.3,2.65-2.9v-11.85c0-.15-.05-.25-.25-.25-4.05.05-7.3.15-10.05.3-.15,0-.25.05-.45.2-.9.75-1.8,1.65-2.7,2.65-.1.1-.25.15-.35-.05-.85-1.55-1.65-3.1-2.35-4.7-.1-.2-.15-.15-.15.05.1,9.05.35,15.2.7,21.55,0,.15-.1.25-.25.25h-5.35c-.15,0-.25-.1-.25-.25.35-5.95.55-11.7.65-19.8,0-.15-.05-.15-.1-.05-1.1,2.9-2.35,5.5-4.05,8-.1.15-.25.15-.35.05-1.15-1.2-2.35-2.25-3.55-3.15-.05-.05-.1-.1-.1-.15,0-.1.05-.15.1-.2,3.3-3.7,5.75-8.85,7.4-14.45.05-.15,0-.25-.25-.25-2.1,0-3.9.1-5.35.25-.15,0-.25-.1-.25-.25v-4.7c0-.15.1-.25.25-.25,1.55.15,3.55.25,5.9.3.2,0,.25-.1.25-.25v-1.45c0-3.8-.2-6.1-.6-7.8-.05-.2.1-.3.25-.3,1.9.1,4.05.35,5.45.65,1.05.2,1.15.8.4,1.5-.65.6-.75,1.95-.75,5.2v2.15c0,.2.1.25.25.25,1.8,0,3.3-.1,4.6-.2.2,0,.25.05.25.2v4.7c0,.15-.05.2-.25.2-1.2-.1-2.6-.15-4.3-.2-.2,0-.25.1-.2.25,1.15,3.1,2.9,5.75,4.55,7.85.1.15.2.1.2-.05v-2.35c0-.15.1-.25.25-.25,2.85.2,6.25.3,10.55.35.2,0,.25-.1.25-.25v-2c0-.15-.05-.25-.25-.25-3.25.05-5.85.15-8.1.3-.15,0-.25-.1-.25-.25v-4.1c0-.15.1-.25.25-.25,2.25.15,4.85.25,8.1.3.2,0,.25-.1.25-.25v-1.95c0-.15-.05-.25-.25-.25-3.8.05-6.8.2-9.35.35-.15,0-.25-.1-.25-.25v-4.2c0-.15.1-.25.25-.25,1.5.15,3.2.2,5.15.3.2,0,.25-.1.15-.25-.95-1.55-2.05-3.1-3.2-4.45-.15-.15-.1-.25.05-.35l3.25-2.05c.15-.1.3-.2.45-.2s.2.05.45.3c1.15,1.1,2.8,2.9,4.3,4.9.1.15.05.25-.05.35l-2.5,1.65c-.1.05-.1.15.05.15,1.35.05,2.85.05,4.45.05.2,0,.3-.05.4-.2.8-1.15,1.8-2.85,2.4-4.3.45-1.1.8-1.95.95-2.75.05-.15.1-.2.15-.2s.3.1.55.2c1.55.6,3.35,1.4,4.75,2.15.95.5.8,1.2-.2,1.65-.55.25-.9.45-1.55,1.45-.35.55-.75,1.05-1.25,1.7-.1.15,0,.25.15.25,2.5-.1,4.6-.2,6.45-.35.2,0,.25.1.25.25v4.2c0,.15-.05.25-.25.25-2.7-.2-6.05-.3-10.3-.35-.15,0-.25.1-.25.25v1.95c0,.15.1.25.25.25,3.45-.05,6.05-.15,8.5-.3.2,0,.25.1.25.25v4.1c0,.15-.05.25-.25.25-2.45-.15-5.1-.25-8.5-.3-.15,0-.25.1-.25.25v2c0,.15.1.25.25.25,4.85-.05,8.6-.15,11.6-.35.2,0,.25.1.25.25v4.4c0,.15-.05.25-.25.25-2.9-.2-8.2-.35-11.6-.35-.15,0-.25.1-.25.25ZM332.84,31.95c.1,1.55.25,2.95.4,4.4,0,.15,0,.3-.15.4-2.1,1.25-4.6,2.65-6.25,3.5-1.4.75-1.95,1.05-2.25,1.85-.35.95-1.05,1.05-1.65.15-.6-.9-1.6-2.9-2.4-4.85-.05-.15,0-.25.2-.3.95-.15,2.45-.5,3.65-1,2.2-.9,5.75-2.8,8.2-4.25.15-.1.25-.05.25.1ZM332.29,29.8l-3.05,3.2c-.15.15-.25.1-.35,0-1.35-1.5-3.15-3.05-5-4.45-.15-.1-.15-.2,0-.35l2.6-2.75c.15-.15.3-.15.45-.05,1.9,1.2,4.1,2.9,5.35,4.05.1.1.15.2,0,.35Z"/>
    <path d="M403.59,20.7v5.2c0,.15-.05.25-.25.25-4.25-.25-9.5-.3-16.5-.35-.15,0-.3.1-.25.25.25,2,.35,4.2.35,6.7,0,8.85-2.95,12.6-10.1,12.6-.8,0-2.4-.05-3.15-.1-.15,0-.25-.15-.3-.3-.55-1.75-1.2-4-2-5.65-.05-.1,0-.2.15-.2,1.6.15,3.85.3,5.35.3,2.7,0,4.2-1.4,4.2-6.85,0-2.5-.15-4.65-.5-6.5-.05-.2-.15-.25-.35-.25-9.7,0-16.55.05-21.85.35-.15,0-.25-.1-.25-.25v-5.2c0-.15.1-.25.25-.25,4.95.3,11.25.35,20,.35.15,0,.2-.1.1-.25-1-1.65-2.35-3.05-4.15-4.45-.15-.1-.15-.2,0-.35l3.15-3.45c.1-.1.2-.1.35,0,.75.55,1.45,1.1,2.1,1.6.2.15.3.15.45.05,2.4-1.9,4.4-3.7,5.85-5.1.1-.1.05-.2-.1-.2h-1.3c-9.35,0-15.65,0-21.25.45-.15,0-.25-.1-.25-.25V3.65c0-.15.1-.25.25-.25,5.1.4,10.8.45,21.25.45h3.1c1.25,0,1.5-.1,2-.35.35-.15.55-.25.8-.25.2,0,.45.1.8.35.55.4,2.85,2.5,3.55,3.2.55.55.5,1.25-.25,1.5-.7.25-1.1.45-2.05,1.4-1.85,1.85-5.55,5.2-9,7.9-.15.1-.15.2-.05.35.55.85,1,1.7,1.4,2.6.1.2.2.25.35.25,7.65,0,13.35-.1,17.85-.35.2,0,.25.1.25.25Z"/>
    <path d="M441.41,20.26c1.3,1.35,2.65,3.06,3.46,4.27.27.4.4.72.4.94,0,.4-.4.58-1.08.58-.63,0-1.26.09-2.21.31-2.38.63-5.36,1.44-8.14,2.43-.14.04-.23.13-.23.27.23,2.7.27,4.91.27,6.93,0,.13-.04.22-.23.27-1.39.27-3.69.36-4.95.23-.14,0-.18-.09-.18-.23.14-1.35.23-3.19.23-5.08,0-.14-.09-.18-.18-.14-2.92,1.48-4.81,3.15-4.81,4.81,0,2.38,2.57,3.02,6.08,3.02,2.56,0,5.53-.45,8.1-.95.18-.04.22,0,.27.18.23,1.48.32,3.73.18,5.17,0,.13-.04.27-.22.27-2.83.31-5.26.45-7.56.45-7.33,0-11.88-1.98-11.88-7.24s4.19-8.01,9.31-10.57c.18-.09.27-.18.23-.31-.36-2.02-1.4-2.83-2.75-2.83-1.67,0-3.42,1.26-4.63,2.38-1.71,1.62-3.6,4.72-5.08,7.6-.09.18-.18.23-.31.18-1.44-.45-3.69-1.44-4.91-2.25-.13-.09-.18-.13-.18-.18s0-.09.04-.18c3.6-4.63,6.48-9.58,8.32-13.5.09-.18.04-.23-.09-.23-1.48.04-3.01,0-4.54-.04-.13,0-.27-.09-.31-.23-.45-1.35-.86-3.46-1.04-4.72-.04-.23.09-.27.22-.27,2.57.27,5.17.45,7.79.36.18,0,.27-.13.31-.27.36-1.03.63-1.84.81-2.56.36-1.44.5-2.65.5-3.87,0-.14.04-.18.22-.18,1.62.23,3.78.72,5.31,1.21,1.12.36,1.21.9.54,1.58-.4.4-.76.81-1.17,1.48-.27.45-.58,1.08-.94,1.94-.09.18-.04.23.27.18,2.34-.36,4.5-.85,6.75-1.57.13-.04.22-.04.27.13.27,1.31.36,3.19.27,4.77,0,.13-.04.23-.23.27-3.1.63-6.21,1.17-9.4,1.48-.13,0-.27.09-.32.18-.49,1.08-1.03,2.34-1.66,3.55-.05.09,0,.18.13.09,1.48-.94,3.19-1.48,4.36-1.48,2.88,0,5.36,1.44,6.25,4.86.04.13.13.13.27.09,1.75-.72,3.46-1.44,4.5-1.84,1.35-.54,2.43-1.04,3.24-1.8.09-.09.23-.04.32.04Z"/>
  </g>
  <g>
    <path d="M231.49,80.72c2,1.1,3.95,1.85,5.95,2.45.15.05.25,0,.3-.2.35-2.2.65-3.9,1-5.75.05-.2,0-.25-.2-.3-1.8-.45-3.8-1.05-5.45-1.8-.1-.05-.2-.2-.2-.35.05-1.7.35-3.75.7-5.4.05-.2.1-.25.3-.15,1.85.95,3.9,1.75,5.75,2.25.2.05.25,0,.3-.2.35-1.85.65-3.45.85-4.8.25-1.7.35-3.35.2-4.7,0-.2.1-.25.25-.25,1.65.25,4.7,1.05,6.6,1.85,1.25.55,1.35,1.05.55,2.05-.5.6-.9,1.2-1.2,1.95-.45,1.1-.85,2.45-1.4,4.6-.05.2,0,.3.25.3,2.15.05,4.4-.15,6.75-.45.2-.05.3.05.25.25-.25,1.75-.85,4.05-1.45,5.65-.05.15-.15.25-.35.25-2.2.05-4.4,0-6.55-.15-.15,0-.25.05-.3.25-.4,2.1-.75,3.8-1.1,5.85-.05.2.05.3.25.3,2.4.15,5.05.1,7.9-.25.15,0,.25.05.25.2-.1,1.6-.55,4.2-1.05,5.6-.05.15-.15.25-.35.25-2.5.1-5.05.05-7.55-.2-.15,0-.2.05-.25.25-.1,1.2-.15,2.45-.15,3.15,0,5.15,2.55,6.65,6.6,6.65,4.35,0,7.35-2.75,7.35-6.9,0-3.4-1.95-6.75-4.1-9.75-.1-.15,0-.25.1-.25,1.8-.2,3.8-.55,5.25-1,.15-.05.3.05.4.15,2.4,2.7,4.65,6.75,4.65,11.2,0,6.9-4.8,12.15-13.55,12.15-8.1,0-12.4-4.65-12.4-11.75,0-1.15.1-2.65.3-4.5,0-.15-.05-.25-.25-.3-1.95-.45-3.8-1.05-5.45-1.85-.2-.1-.25-.15-.3-.6-.05-.55-.05-.75-.05-1.15,0-1.45.15-3.15.3-4.45.05-.2.2-.2.3-.15Z"/>
    <path d="M272.69,82.72c0-.1.1-.15.35-.2,1.1-.2,3.8-.95,5.75-1.6,6.15-2.1,12.55-3.9,16.75-3.9,6.4,0,12.85,2.95,12.85,10.8,0,9.7-9.3,13.55-18.7,15.35-.15,0-.25-.05-.35-.2-.95-1.6-2.5-3.55-3.75-4.85-.1-.1-.05-.2.1-.2,10.05-.85,16.35-5.25,16.35-10.2,0-3.35-2.55-5.4-6.65-5.4-4.45,0-9.85,2.05-13.25,3.8-2.25,1.15-2.8,1.65-3.5,2.35-.75.75-1.25.75-2.2-.3-.95-1.05-2.75-3.6-3.6-5.1-.1-.15-.15-.25-.15-.35Z"/>
    <path d="M346.29,69.82c1.3,1.3,2.85,3.2,3.9,4.8.45.65.65,1.15.65,1.55,0,.5-.35.75-1.15.85-1.35.15-2.65.45-4.15,1-11.75,4.25-19.1,9.4-19.1,14.35,0,3.5,3.15,5.15,9.65,5.15,4.65,0,10.1-.85,13.15-1.5.2-.05.25.05.3.2.2,1.75.3,4.45.2,6.45,0,.15-.05.25-.25.3-2.65.4-7.9.85-11.6.85-8.15,0-17.25-1.55-17.25-10.95,0-5.3,3.25-9.3,8.15-12.8.15-.1.2-.2.15-.4-1.15-4.25-2.75-8.6-4.15-12.15-.45-1.15-1.05-2.35-1.8-3.4-.15-.2-.1-.3.1-.35,1.9-.45,4.85-.9,6.05-.9,1.35,0,1.85.1,1.75,1.15-.1,1.05,0,2,.45,3.4.85,2.7,1.75,5.35,2.85,8.95.05.15.15.2.35.1,2.2-1.2,4.6-2.45,7-3.75,1.8-1,3.4-1.95,4.4-2.9.1-.1.25-.1.35,0Z"/>
    <path d="M396.7,95.43c1.39.85,2.79,1.53,4.32,2.2.18.09.18.14.18.23,0,.04,0,.09-.04.31-.63,3.24-1.53,5-3.24,5.94-1.35.77-3.42.99-7.2.99-6.66,0-8.05-1.62-8.05-4.41,0-1.89.09-3.65.09-6.84v-2.7c0-.14-.04-.23-.23-.23h-3.6c-.18,0-.27.04-.31.23-1.62,8.59-6.12,12.51-15.34,14.44-.22.04-.27.04-.32.04-.09,0-.13,0-.22-.18-.76-1.49-1.35-2.48-2.38-3.92-.04-.04-.13-.18-.13-.23s0-.09.18-.13c8.37-1.17,11.92-4.14,13.14-9.99.04-.13,0-.23-.18-.23-2.02.04-3.96.09-5.94.18-.13,0-.22-.09-.22-.23.04-3.46.09-7.15.09-11.92s-.04-8.46-.09-11.7c0-.18.09-.23.22-.23,4.09.09,8.1.09,13.05.09s9.13,0,13.18-.09c.18,0,.22.09.22.23-.04,3.24-.09,6.79-.09,11.61s.04,8.55.09,12.01c0,.14-.04.23-.22.23-1.62-.09-3.51-.14-5.62-.18-.13,0-.22.09-.22.23v6.21c0,2.56.31,3.06,3.1,3.06,2.21,0,3.46-.04,4.32-.81.77-.67,1.08-2.11,1.26-4.14,0-.13.09-.18.22-.09ZM388.69,73.87c.13,0,.23-.09.23-.23v-2.02c0-.13-.09-.23-.23-.23h-16.47c-.14,0-.23.09-.23.23v2.02c0,.14.09.23.23.23h16.47ZM371.99,79.99c0,.14.09.23.23.23h16.47c.13,0,.23-.09.23-.23v-2.02c0-.13-.09-.23-.23-.23h-16.47c-.14,0-.23.09-.23.23v2.02ZM372.22,84.09c-.14,0-.23.09-.23.23v2.16c0,.13.09.22.23.22h16.47c.13,0,.23-.09.23-.22v-2.16c0-.13-.09-.23-.23-.23h-16.47Z"/>
    <path d="M411.55,70c3.51.23,11.25-.49,14.31-1.21.58-.13,1.08-.27,1.66-.54s.81-.36.99-.36.41.04.9.36c.85.54,3.06,2.16,3.82,2.92.99.99.95,1.44-.13,2.07-.76.45-1.08.72-2.29,1.89-2.52,2.43-4.95,4.81-7.38,7.33-.09.09-.04.18.09.13,1.44-.5,2.97-.67,4.45-.67,4.95,0,11.43,2.2,11.43,10.21,0,7.15-6.43,12.06-14.44,12.06-5.13,0-9.67-2.38-9.67-7.02,0-2.92,2.43-5.67,7.2-5.67,3.78,0,6.93,2.43,8.41,5.85.04.09.14.18.32.05,1.75-1.35,2.61-3.33,2.56-5.49-.04-3.46-2.7-5.62-7.11-5.62-5.08,0-9.27,3.15-12.69,7.51-.09.14-.18.14-.32.04-1.26-.94-3.1-2.65-4.09-3.69-.04-.04-.09-.09-.09-.18s.04-.14.09-.18c5.31-4.63,11.02-10.71,15.48-16.06.13-.18.13-.27-.04-.22-3.69.63-6.84,1.12-8.1,1.53-.9.27-1.44.5-2.03.85-.81.5-1.35.5-1.84-.67-.63-1.49-1.21-3.24-1.67-4.95-.04-.18.04-.27.18-.27ZM426.31,99.52c.23-.04.23-.18.18-.27-.81-1.71-2.48-3.38-4.59-3.38-.95,0-1.8.36-1.8,1.4,0,1.35,1.89,2.38,4.41,2.38.41,0,1.04-.04,1.8-.13Z"/>
  </g>
</svg>